SplineFontDB: 3.0
FontName: FifteenTwenty-DemiOblique
FullName: FifteenTwenty Demi Oblique
FamilyName: FifteenTwenty
Weight: Demi
Copyright: FifteenTwenty Demi Oblique\nMade in 2016 by Stewart C. Russell - scruss.com\nLicence: Dual-licensed CC0/WTFPL (srsly)
UComments: "Derived from character stroke coordinates from the Commodore 1520 plotter ROM. This has been documented here - http://e4aws.silverdr.com/hacks/6500_1/ - and here - https://github.com/Project-64/reloaded/tree/master/1520/rom+AAoACgAA-This font contains none of the original Commodore coordinates, as they were in a format unusable with current computer systems.+AAoACgAA-Coverage: ASCII"
Version: 001.000
ItalicAngle: -9.462
UnderlinePosition: -100
UnderlineWidth: 50
Ascent: 800
Descent: 200
InvalidEm: 0
LayerCount: 2
Layer: 0 0 "Back" 1
Layer: 1 0 "Fore" 0
XUID: [1021 355 -283255581 792078]
FSType: 0
OS2Version: 0
OS2_WeightWidthSlopeOnly: 0
OS2_UseTypoMetrics: 1
CreationTime: 1462803945
ModificationTime: 1462804346
PfmFamily: 17
TTFWeight: 600
TTFWidth: 5
LineGap: 90
VLineGap: 0
OS2TypoAscent: 0
OS2TypoAOffset: 1
OS2TypoDescent: 0
OS2TypoDOffset: 1
OS2TypoLinegap: 90
OS2WinAscent: 0
OS2WinAOffset: 1
OS2WinDescent: 0
OS2WinDOffset: 1
HheadAscent: 0
HheadAOffset: 1
HheadDescent: 0
HheadDOffset: 1
OS2Vendor: 'PfEd'
MarkAttachClasses: 1
DEI: 91125
Encoding: UnicodeFull
Compacted: 1
UnicodeInterp: none
NameList: AGL For New Fonts
DisplaySize: -48
AntiAlias: 1
FitToEm: 1
WinInfo: 0 17 10
BeginPrivate: 0
EndPrivate
BeginChars: 1114112 103

StartChar: exclam
Encoding: 33 33 0
Width: 576
VWidth: 214
Flags: W
HStem: 200 70<235 259> 293 70<239 263> 387 70<266 290> 759 70<317 341>
VStem: 159 258
LayerCount: 2
Back
Fore
SplineSet
294 829 m 1
 386 829 l 2
 403 829 417 816 417 799 c 0
 417 797 417 796 417 794 c 2
 355 422 l 2
 352 403 332 387 313 387 c 2
 227 387 l 2
 225 387 223 386 221 386 c 0
 213 386 203 391 198 396 c 0
 196 397 l 0
 191 403 190 414 191 422 c 0
 191 424 191 425 191 427 c 2
 253 794 l 2
 256 813 275 829 294 829 c 1
317 759 m 1
 266 457 l 1
 290 457 l 1
 341 759 l 1
 317 759 l 1
217 363 m 0
 309 363 l 2
 326 363 339 350 339 333 c 0
 339 331 339 330 339 328 c 2
 323 235 l 2
 320 216 301 200 282 200 c 2
 196 200 l 2
 194 200 192 200 190 200 c 0
 182 200 172 205 167 210 c 0
 165 211 l 0
 160 217 158 227 159 235 c 0
 159 237 160 239 160 241 c 2
 175 328 l 2
 178 347 198 363 217 363 c 0
239 293 m 1
 235 270 l 1
 259 270 l 1
 263 293 l 1
 239 293 l 1
EndSplineSet
EndChar

StartChar: quotedbl
Encoding: 34 34 1
Width: 576
VWidth: 214
Flags: W
HStem: 665 164<172.844 216.576 359.424 402.576>
VStem: 152 70<670.596 741.688> 168 70<753.312 823.856> 338 70<670.596 741.688> 354 70<753.312 823.404>
LayerCount: 2
Back
Fore
SplineSet
208 829 m 0xa0
 209 829 l 0
 226 829 238 816 238 800 c 0
 238 798 238 796 238 794 c 0xa0
 222 701 l 2
 222 700 l 0
 219 681 200 665 181 665 c 0
 164 665 152 678 152 694 c 0
 152 696 152 698 152 700 c 0
 152 701 l 2xc0
 168 794 l 2
 171 813 189 829 208 829 c 0xa0
395 829 m 0
 412 829 424 816 424 800 c 0
 424 798 424 796 424 794 c 0x88
 408 701 l 2
 408 700 l 0
 405 681 386 665 367 665 c 0
 350 665 338 678 338 694 c 0
 338 696 338 698 338 700 c 0
 338 701 l 2x90
 354 794 l 2x88
 357 813 376 829 395 829 c 0
EndSplineSet
EndChar

StartChar: numbersign
Encoding: 35 35 2
Width: 576
VWidth: 214
Flags: W
HStem: 387 70<56 139 220 325 406 489.844> 573 70<87 170 251 356 437 520.844>
LayerCount: 2
Back
Fore
SplineSet
231 736 m 0
 233 736 l 0
 250 736 261 723 261 707 c 0
 261 705 261 703 261 701 c 0
 251 643 l 1
 367 643 l 1
 377 701 l 2
 380 720 400 736 419 736 c 0
 436 736 447 723 447 707 c 0
 447 705 447 703 447 701 c 0
 437 643 l 1
 495 643 l 2
 512 643 526 630 526 613 c 0
 526 611 526 610 526 608 c 0
 523 589 503 573 484 573 c 0
 426 573 l 1
 406 457 l 1
 464 457 l 2
 481 457 495 444 495 427 c 0
 495 425 495 424 495 422 c 0
 492 403 472 386 453 386 c 0
 453 387 l 2
 395 387 l 1
 385 328 l 2
 382 309 364 293 345 293 c 0
 328 293 314 306 314 323 c 0
 314 325 315 326 315 328 c 0
 325 387 l 1
 209 387 l 1
 199 328 l 2
 196 309 178 293 159 293 c 0
 142 293 128 306 128 323 c 0
 128 325 129 326 129 328 c 0
 139 387 l 1
 81 387 l 2
 81 386 l 0
 64 386 50 400 50 417 c 0
 50 419 51 420 51 422 c 0
 54 441 73 457 92 457 c 0
 150 457 l 1
 170 573 l 1
 112 573 l 2
 95 573 81 586 81 603 c 0
 81 605 82 606 82 608 c 0
 85 627 104 643 123 643 c 0
 181 643 l 1
 191 701 l 2
 194 720 212 736 231 736 c 0
240 573 m 1
 220 457 l 1
 336 457 l 1
 356 573 l 1
 240 573 l 1
EndSplineSet
EndChar

StartChar: dollar
Encoding: 36 36 3
Width: 576
VWidth: 214
Flags: W
HStem: 200 21G<227.5 245.5> 293 70<134 216 298 342> 480 70<216 247 329 361> 666 70<235 278 360 442.924> 809 20G<330.5 348.5>
LayerCount: 2
Back
Fore
SplineSet
340 829 m 0
 357 829 370 816 370 800 c 0
 370 798 370 796 370 794 c 0
 360 736 l 1
 418 736 l 2
 419 736 l 0
 436 736 448 723 448 707 c 0
 448 705 448 703 448 701 c 0
 445 682 426 666 407 666 c 0
 406 666 l 2
 348 666 l 1
 329 550 l 1
 387 550 l 2
 395 550 405 545 410 539 c 2
 488 446 l 2
 493 440 495 430 494 422 c 0
 493 414 486 403 479 397 c 2
 371 304 l 2
 364 298 352 293 344 293 c 2
 286 293 l 1
 276 235 l 2
 273 216 255 200 236 200 c 0
 219 200 206 213 206 229 c 0
 206 231 206 233 206 235 c 0
 216 293 l 1
 158 293 l 2
 141 293 128 306 128 322 c 0
 128 324 129 326 129 328 c 0
 132 347 151 363 170 363 c 0
 228 363 l 1
 247 480 l 1
 189 480 l 2
 181 480 171 484 166 490 c 2
 88 583 l 2
 83 589 82 600 83 608 c 0
 84 616 90 626 97 632 c 2
 205 725 l 2
 212 731 224 736 232 736 c 2
 290 736 l 1
 300 794 l 2
 303 813 321 829 340 829 c 0
235 666 m 1
 167 608 l 1
 216 550 l 1
 259 550 l 1
 278 666 l 1
 235 666 l 1
317 480 m 1
 298 363 l 1
 342 363 l 1
 410 422 l 1
 361 480 l 1
 317 480 l 1
EndSplineSet
EndChar

StartChar: percent
Encoding: 37 37 4
Width: 576
VWidth: 214
Flags: W
HStem: 293 70<391 413> 387 70<395 417> 573 70<157 181> 666 70<161 185>
LayerCount: 2
Back
Fore
SplineSet
231 736 m 2
 239 736 250 732 255 726 c 0
 255 725 l 0
 260 719 262 709 261 701 c 0
 261 699 260 697 260 695 c 2
 246 608 l 2
 243 589 223 573 204 573 c 2
 112 573 l 2
 95 573 81 586 81 603 c 0
 81 605 82 606 82 608 c 2
 97 701 l 2
 100 720 120 736 139 736 c 2
 227 736 l 2
 228 736 230 736 231 736 c 2
511 736 m 0
 528 736 542 723 542 706 c 0
 542 704 541 703 541 701 c 0
 540 693 532 682 525 676 c 2
 91 304 l 2
 84 298 73 293 65 293 c 0
 48 293 34 306 34 323 c 0
 34 325 35 326 35 328 c 0
 36 336 44 347 51 353 c 2
 485 725 l 2
 491 731 503 736 511 736 c 0
161 666 m 1
 157 643 l 1
 181 643 l 1
 185 666 l 1
 161 666 l 1
370 457 m 0
 372 457 374 457 376 457 c 2
 464 457 l 2
 481 457 493 444 493 428 c 0
 493 426 493 424 493 422 c 2
 477 328 l 2
 474 309 456 293 437 293 c 2
 343 293 l 2
 326 293 314 306 314 322 c 0
 314 324 315 326 315 328 c 2
 330 416 l 2
 330 418 331 420 331 422 c 0
 332 430 339 440 345 446 c 0
 345 447 l 0
 352 453 362 457 370 457 c 0
395 387 m 1
 391 363 l 1
 413 363 l 1
 417 387 l 1
 395 387 l 1
EndSplineSet
EndChar

StartChar: ampersand
Encoding: 38 38 5
Width: 576
VWidth: 214
Flags: W
HStem: 200 70<192 256> 809 20G<267 275>
LayerCount: 2
Back
Fore
SplineSet
271 829 m 0
 279 829 289 824 294 818 c 2
 371 725 l 2
 376 719 378 709 377 701 c 2
 362 608 l 2
 361 600 355 589 348 583 c 2
 268 515 l 1
 381 378 l 1
 461 446 l 2
 468 452 480 457 488 457 c 0
 505 457 517 444 517 428 c 0
 517 426 517 424 517 422 c 0
 516 414 510 403 503 397 c 2
 423 328 l 1
 480 260 l 2
 485 254 487 243 486 235 c 0
 483 216 464 200 445 200 c 0
 437 200 427 205 422 211 c 2
 365 279 l 1
 286 211 l 2
 279 205 267 200 259 200 c 2
 166 200 l 2
 158 200 148 205 143 211 c 2
 65 304 l 2
 60 310 58 320 59 328 c 2
 75 422 l 2
 76 430 82 440 89 446 c 2
 169 515 l 1
 112 583 l 2
 107 589 105 600 106 608 c 2
 121 701 l 2
 122 709 128 719 135 725 c 2
 244 818 l 2
 251 824 263 829 271 829 c 0
256 744 m 1
 189 686 l 1
 178 622 l 1
 226 564 l 1
 294 622 l 1
 305 686 l 1
 256 744 l 1
210 465 m 1
 142 407 l 1
 132 343 l 1
 192 270 l 1
 256 270 l 1
 324 328 l 1
 210 465 l 1
EndSplineSet
EndChar

StartChar: quotesingle
Encoding: 39 39 6
Width: 576
VWidth: 214
Flags: W
HStem: 572 257<273.688 302.156>
VStem: 237 70<577.144 607>
LayerCount: 2
Back
Fore
SplineSet
308 829 m 0
 309 829 l 0
 326 829 339 816 339 800 c 0
 339 798 339 796 339 794 c 0
 308 608 l 2
 307 607 l 0
 304 588 286 572 267 572 c 0
 250 572 237 585 237 601 c 0
 237 603 237 605 237 607 c 0
 238 608 l 2
 269 794 l 2
 272 813 289 829 308 829 c 0
EndSplineSet
EndChar

StartChar: parenleft
Encoding: 40 40 7
Width: 576
VWidth: 214
Flags: W
HStem: 200 70<253 357.156> 759 70<335 450.156>
LayerCount: 2
Back
Fore
SplineSet
333 829 m 0
 425 829 l 2
 427 829 l 0
 444 829 455 816 455 800 c 0
 455 798 455 796 455 794 c 0
 452 775 434 759 415 759 c 0
 413 759 l 2
 335 759 l 1
 251 686 l 1
 194 343 l 1
 253 270 l 1
 331 270 l 2
 333 270 l 0
 350 270 362 257 362 241 c 0
 362 239 362 237 362 235 c 0
 359 216 341 200 322 200 c 0
 320 200 l 2
 228 200 l 2
 220 200 209 205 204 211 c 2
 127 304 l 2
 122 310 120 320 121 328 c 2
 183 701 l 2
 184 709 190 719 197 725 c 2
 305 818 l 2
 312 824 325 829 333 829 c 0
EndSplineSet
EndChar

StartChar: parenright
Encoding: 41 41 8
Width: 576
VWidth: 214
Flags: W
HStem: 200 70<125.844 241> 759 70<218.844 323>
LayerCount: 2
Back
Fore
SplineSet
254 829 m 0
 348 829 l 2
 356 829 365 824 370 818 c 2
 449 725 l 2
 454 719 456 709 455 701 c 2
 393 328 l 2
 392 320 386 310 379 304 c 2
 269 211 l 2
 262 205 251 200 243 200 c 0
 149 200 l 2
 132 200 121 213 121 229 c 0
 121 231 121 233 121 235 c 0
 124 254 142 270 161 270 c 0
 241 270 l 1
 325 343 l 1
 382 686 l 1
 323 759 l 1
 243 759 l 2
 226 759 214 772 214 788 c 0
 214 790 214 792 214 794 c 0
 217 813 235 829 254 829 c 0
EndSplineSet
EndChar

StartChar: asterisk
Encoding: 42 42 9
Width: 576
VWidth: 214
Flags: W
LayerCount: 2
Back
Fore
SplineSet
325 736 m 0
 342 736 354 723 354 707 c 0
 354 705 353 703 353 701 c 0
 336 599 l 1
 485 725 l 2
 492 731 503 736 511 736 c 0
 528 736 542 723 542 706 c 0
 542 704 541 703 541 701 c 0
 540 693 532 682 525 676 c 2
 338 515 l 1
 471 353 l 2
 476 347 480 336 479 328 c 0
 476 309 456 293 437 293 c 0
 429 293 420 298 415 304 c 2
 308 430 l 1
 291 328 l 2
 288 309 270 293 251 293 c 0
 234 293 220 306 220 323 c 0
 220 325 221 326 221 328 c 0
 238 430 l 1
 91 304 l 2
 84 298 73 293 65 293 c 0
 48 293 34 306 34 323 c 0
 34 325 35 326 35 328 c 0
 36 336 44 347 51 353 c 2
 238 515 l 1
 105 676 l 2
 100 682 96 693 97 701 c 0
 100 720 120 736 139 736 c 0
 147 736 156 731 161 725 c 2
 266 599 l 1
 283 701 l 2
 286 720 306 736 325 736 c 0
EndSplineSet
EndChar

StartChar: plus
Encoding: 43 43 10
Width: 576
VWidth: 214
Flags: W
HStem: 480 70<71.1562 248 330 504.844>
LayerCount: 2
Back
Fore
SplineSet
325 736 m 0
 342 736 355 723 355 706 c 0
 355 704 355 703 355 701 c 0
 330 550 l 1
 480 550 l 2
 497 550 510 537 510 520 c 0
 510 518 510 517 510 515 c 0
 507 496 487 480 468 480 c 0
 318 480 l 1
 293 328 l 2
 290 309 270 293 251 293 c 0
 234 293 222 306 222 322 c 0
 222 324 223 326 223 328 c 0
 248 480 l 1
 96 480 l 2
 79 480 66 493 66 510 c 0
 66 512 66 513 66 515 c 0
 69 534 89 550 108 550 c 0
 260 550 l 1
 285 701 l 2
 288 720 306 736 325 736 c 0
EndSplineSet
EndChar

StartChar: comma
Encoding: 44 44 11
Width: 576
VWidth: 214
Flags: W
HStem: 107 21G<211.5 224> 293 70<286 309>
VStem: 191 194
LayerCount: 2
Back
Fore
SplineSet
263 363 m 2
 356 363 l 2
 373 363 385 350 385 334 c 0
 385 332 385 330 385 328 c 2
 370 241 l 2
 370 239 370 237 370 235 c 0
 368 225 361 214 352 208 c 2
 247 118 l 2
 240 112 228 107 220 107 c 0
 203 107 191 120 191 136 c 0
 191 138 191 140 191 142 c 0
 192 150 199 161 206 167 c 2
 245 200 l 1
 236 200 l 2
 219 200 206 213 206 229 c 0
 206 231 206 233 206 235 c 2
 222 328 l 2
 225 347 244 363 263 363 c 2
286 293 m 1
 282 270 l 1
 305 270 l 1
 309 293 l 1
 286 293 l 1
EndSplineSet
EndChar

StartChar: hyphen
Encoding: 45 45 12
Width: 576
VWidth: 214
Flags: W
HStem: 480 70<71.1562 504.844>
LayerCount: 2
Back
Fore
SplineSet
108 550 m 0
 480 550 l 2
 497 550 510 537 510 520 c 0
 510 518 510 517 510 515 c 0
 507 496 487 480 468 480 c 0
 96 480 l 2
 79 480 66 493 66 510 c 0
 66 512 66 513 66 515 c 0
 69 534 89 550 108 550 c 0
EndSplineSet
EndChar

StartChar: period
Encoding: 46 46 13
Width: 576
VWidth: 214
Flags: W
HStem: 200 70<274 298> 293 70<278 302>
VStem: 198 180
LayerCount: 2
Back
Fore
SplineSet
256 363 m 0
 348 363 l 2
 365 363 378 350 378 333 c 0
 378 331 378 330 378 328 c 2
 362 235 l 2
 359 216 339 200 320 200 c 2
 234 200 l 2
 232 200 230 200 228 200 c 0
 220 200 211 205 206 210 c 0
 204 211 l 0
 199 217 197 227 198 235 c 0
 198 237 199 239 199 241 c 2
 214 328 l 2
 217 347 237 363 256 363 c 0
278 293 m 1
 274 270 l 1
 298 270 l 1
 302 293 l 1
 278 293 l 1
EndSplineSet
EndChar

StartChar: slash
Encoding: 47 47 14
Width: 576
VWidth: 214
Flags: W
HStem: 200 21G<1.5 14>
LayerCount: 2
Back
Fore
SplineSet
565 736 m 0
 566 736 l 0
 583 736 595 723 595 707 c 0
 595 705 595 703 595 701 c 0
 594 693 587 682 580 676 c 2
 37 211 l 2
 30 205 18 200 10 200 c 0
 -7 200 -19 213 -19 229 c 0
 -19 231 -19 233 -19 235 c 0
 -18 243 -11 254 -4 260 c 2
 539 725 l 2
 545 731 557 736 565 736 c 0
EndSplineSet
EndChar

StartChar: zero
Encoding: 48 48 15
Width: 576
VWidth: 214
Flags: W
HStem: 200 70<169 326> 759 70<251 408>
LayerCount: 2
Back
Fore
SplineSet
247 829 m 0
 433 829 l 2
 441 829 452 824 457 818 c 2
 532 729 l 2
 538 723 542 711 540 702 c 0
 540 701 l 0
 478 328 l 2
 477 320 471 310 464 304 c 2
 355 211 l 2
 348 205 337 200 329 200 c 0
 143 200 l 2
 135 200 125 205 120 211 c 2
 46 300 l 2
 39 306 34 318 36 328 c 0
 36 329 37 332 37 333 c 2
 98 701 l 2
 99 709 106 719 113 725 c 2
 222 818 l 2
 229 824 239 829 247 829 c 0
251 759 m 1
 166 686 l 1
 120 413 l 1
 456 701 l 1
 408 759 l 1
 251 759 l 1
456 616 m 1
 121 328 l 1
 169 270 l 1
 326 270 l 1
 410 343 l 1
 456 616 l 1
EndSplineSet
EndChar

StartChar: one
Encoding: 49 49 16
Width: 576
VWidth: 214
Flags: W
HStem: 200 70<163.844 259 329 410.312> 809 20G<380 394.5>
VStem: 259 70<270 311.682>
LayerCount: 2
Back
Fore
SplineSet
384 829 m 0
 386 829 l 0
 403 829 417 816 417 799 c 0
 417 797 417 796 417 794 c 2
 329 270 l 1
 387 270 l 2
 404 270 416 257 416 241 c 0
 416 239 415 237 415 235 c 0
 412 216 395 200 376 200 c 0
 288 200 l 2
 286 200 284 200 282 200 c 0
 280 200 278 200 276 200 c 2
 188 200 l 2
 171 200 159 213 159 229 c 0
 159 231 159 233 159 235 c 0
 162 254 180 270 199 270 c 0
 259 270 l 1
 332 709 l 1
 293 676 l 2
 286 670 273 665 265 665 c 0
 248 665 236 678 236 694 c 0
 236 696 237 698 237 700 c 0
 238 708 244 719 251 725 c 2
 361 818 l 2
 367 823 376 829 384 829 c 0
EndSplineSet
EndChar

StartChar: two
Encoding: 50 50 17
Width: 576
VWidth: 214
Flags: W
HStem: 200 70<154 466.806> 759 70<260 416>
LayerCount: 2
Back
Fore
SplineSet
255 829 m 2
 441 829 l 2
 449 829 460 824 465 818 c 2
 542 725 l 2
 547 719 549 709 548 701 c 2
 532 608 l 2
 531 600 525 589 518 583 c 2
 154 270 l 1
 442 270 l 2
 459 270 473 257 473 240 c 0
 473 238 472 237 472 235 c 0
 469 216 449 200 430 200 c 0
 58 200 l 2
 41 200 28 213 28 230 c 0
 28 232 28 233 28 235 c 0
 29 243 37 254 44 260 c 2
 465 622 l 1
 475 686 l 1
 416 759 l 1
 260 759 l 1
 162 676 l 2
 155 670 144 665 136 665 c 0
 119 665 105 678 105 695 c 0
 105 697 106 698 106 700 c 0
 107 708 115 719 122 725 c 2
 229 818 l 2
 236 824 247 829 255 829 c 2
EndSplineSet
EndChar

StartChar: three
Encoding: 51 51 18
Width: 576
VWidth: 214
Flags: W
HStem: 200 70<169 326> 480 70<258.076 361> 759 70<251 408>
LayerCount: 2
Back
Fore
SplineSet
247 829 m 2
 433 829 l 2
 441 829 451 824 456 818 c 2
 534 725 l 2
 539 719 541 709 540 701 c 2
 524 608 l 2
 523 600 517 589 510 583 c 2
 431 515 l 1
 487 446 l 2
 492 440 494 430 493 422 c 2
 478 328 l 2
 477 320 471 310 464 304 c 2
 355 211 l 2
 348 205 336 200 328 200 c 0
 142 200 l 2
 134 200 125 205 120 211 c 2
 43 304 l 2
 38 310 35 321 36 329 c 0
 39 348 58 364 77 364 c 0
 85 364 95 359 100 353 c 2
 169 270 l 1
 326 270 l 1
 410 343 l 1
 421 407 l 1
 361 480 l 1
 282 480 l 2
 265 480 253 493 253 509 c 0
 253 511 253 513 253 515 c 0
 256 534 275 550 294 550 c 0
 373 550 l 1
 457 622 l 1
 467 686 l 1
 408 759 l 1
 251 759 l 1
 154 676 l 2
 147 670 135 665 127 665 c 0
 110 665 97 678 97 694 c 0
 97 696 98 698 98 700 c 0
 99 708 106 719 113 725 c 2
 221 818 l 2
 228 824 239 829 247 829 c 2
EndSplineSet
EndChar

StartChar: four
Encoding: 52 52 19
Width: 576
VWidth: 214
Flags: W
HStem: 200 21G<334.5 352.5> 387 70<142 340 422 504.844> 809 20G<444 456.5>
LayerCount: 2
Back
Fore
SplineSet
448 829 m 0
 465 829 478 816 478 799 c 0
 478 797 478 796 478 794 c 2
 422 457 l 1
 480 457 l 2
 497 457 510 444 510 427 c 0
 510 425 510 424 510 422 c 0
 507 403 487 386 468 386 c 0
 468 387 l 2
 410 387 l 1
 385 235 l 2
 382 216 362 200 343 200 c 0
 326 200 314 213 314 229 c 0
 314 231 315 233 315 235 c 0
 340 387 l 1
 96 387 l 2
 79 387 66 400 66 417 c 0
 66 419 66 420 66 422 c 2
 81 515 l 2
 82 523 88 533 95 539 c 2
 422 818 l 2
 428 823 440 829 448 829 c 0
394 709 m 1
 149 500 l 1
 142 457 l 1
 352 457 l 1
 394 709 l 1
EndSplineSet
EndChar

StartChar: five
Encoding: 53 53 20
Width: 576
VWidth: 214
Flags: W
HStem: 200 70<161 317> 573 70<149 368> 759 70<169 543.844>
LayerCount: 2
Back
Fore
SplineSet
146 829 m 0
 518 829 l 2
 535 829 549 816 549 799 c 0
 549 797 549 796 549 794 c 0
 546 775 526 759 507 759 c 0
 169 759 l 1
 149 643 l 1
 393 643 l 2
 401 643 413 638 418 632 c 2
 494 539 l 2
 499 533 501 523 500 515 c 2
 469 328 l 2
 468 320 462 310 455 304 c 2
 347 211 l 2
 340 205 328 200 320 200 c 0
 134 200 l 2
 126 200 116 205 111 211 c 2
 35 304 l 2
 30 310 26 321 27 329 c 0
 30 348 50 364 69 364 c 0
 77 364 86 359 91 353 c 2
 161 270 l 1
 317 270 l 1
 401 343 l 1
 428 500 l 1
 368 573 l 1
 104 573 l 2
 87 573 73 586 73 603 c 0
 73 605 74 606 74 608 c 2
 105 794 l 2
 108 813 127 829 146 829 c 0
EndSplineSet
EndChar

StartChar: six
Encoding: 54 54 21
Width: 576
VWidth: 214
Flags: W
HStem: 200 70<169 325> 573 70<220 376> 759 70<251 407>
LayerCount: 2
Back
Fore
SplineSet
246 829 m 2
 432 829 l 2
 440 829 452 824 457 818 c 2
 533 725 l 2
 538 719 542 708 541 700 c 0
 538 681 518 665 499 665 c 0
 491 665 482 670 477 676 c 2
 407 759 l 1
 251 759 l 1
 165 686 l 1
 150 599 l 1
 190 632 l 2
 197 638 207 643 215 643 c 0
 401 643 l 2
 409 643 421 638 426 632 c 2
 502 539 l 2
 507 533 509 523 508 515 c 2
 477 328 l 2
 476 320 470 310 463 304 c 2
 355 211 l 2
 348 205 336 200 328 200 c 0
 142 200 l 2
 134 200 124 205 119 211 c 2
 43 304 l 2
 38 310 34 320 35 328 c 2
 65 509 l 2
 65 510 66 513 66 514 c 0
 66 515 67 518 67 519 c 2
 97 701 l 2
 98 709 106 719 113 725 c 2
 221 818 l 2
 228 824 238 829 246 829 c 2
220 573 m 1
 134 500 l 1
 107 343 l 1
 169 270 l 1
 325 270 l 1
 409 343 l 1
 436 500 l 1
 376 573 l 1
 220 573 l 1
EndSplineSet
EndChar

StartChar: seven
Encoding: 55 55 22
Width: 576
VWidth: 214
Flags: W
HStem: 200 21G<41.5 54> 759 70<118 481>
LayerCount: 2
Back
Fore
SplineSet
154 829 m 0
 526 829 l 2
 543 829 557 816 557 799 c 0
 557 797 557 796 557 794 c 2
 526 608 l 2
 525 600 516 589 509 583 c 2
 75 211 l 2
 68 205 58 200 50 200 c 0
 33 200 19 213 19 230 c 0
 19 232 19 233 19 235 c 0
 20 243 29 254 36 260 c 2
 458 622 l 1
 481 759 l 1
 143 759 l 2
 126 759 112 772 112 789 c 0
 112 791 113 792 113 794 c 0
 116 813 135 829 154 829 c 0
EndSplineSet
EndChar

StartChar: eight
Encoding: 56 56 23
Width: 576
VWidth: 214
Flags: W
HStem: 200 70<169 326> 480 70<216 361> 759 70<251 408>
LayerCount: 2
Back
Fore
SplineSet
247 829 m 2
 433 829 l 2
 441 829 452 824 457 818 c 2
 534 725 l 2
 539 719 541 709 540 701 c 2
 525 608 l 2
 524 600 517 589 510 583 c 2
 431 515 l 1
 488 446 l 2
 493 440 495 430 494 422 c 2
 478 328 l 2
 477 320 471 310 464 304 c 2
 355 211 l 2
 348 205 337 200 329 200 c 0
 143 200 l 2
 135 200 124 205 119 211 c 2
 42 304 l 2
 37 310 35 320 36 328 c 2
 52 422 l 2
 53 430 59 440 66 446 c 2
 146 515 l 1
 88 583 l 2
 83 589 82 600 83 608 c 2
 98 701 l 2
 99 709 105 719 112 725 c 2
 221 818 l 2
 228 824 239 829 247 829 c 2
251 759 m 1
 166 686 l 1
 155 622 l 1
 216 550 l 1
 373 550 l 1
 457 622 l 1
 468 686 l 1
 408 759 l 1
 251 759 l 1
204 480 m 1
 119 407 l 1
 108 343 l 1
 169 270 l 1
 326 270 l 1
 410 343 l 1
 421 407 l 1
 361 480 l 1
 204 480 l 1
EndSplineSet
EndChar

StartChar: nine
Encoding: 57 57 24
Width: 576
VWidth: 214
Flags: W
HStem: 200 70<170 326> 480 70<217 373> 759 70<252 408>
LayerCount: 2
Back
Fore
SplineSet
247 829 m 2
 433 829 l 2
 441 829 452 824 457 818 c 2
 534 725 l 2
 539 719 541 709 540 701 c 2
 525 613 l 2
 525 612 526 609 526 608 c 0
 526 607 524 604 524 603 c 2
 478 328 l 2
 477 320 471 310 464 304 c 2
 356 211 l 2
 349 205 336 200 328 200 c 0
 142 200 l 2
 134 200 125 205 120 211 c 2
 44 304 l 2
 39 310 35 321 36 329 c 0
 39 348 59 364 78 364 c 0
 86 364 95 359 100 353 c 2
 170 270 l 1
 326 270 l 1
 410 343 l 1
 440 523 l 1
 403 490 l 2
 396 484 383 480 375 480 c 0
 189 480 l 2
 181 480 172 484 167 490 c 2
 90 583 l 2
 85 589 81 600 82 608 c 2
 98 701 l 2
 99 709 107 719 114 725 c 2
 221 818 l 2
 228 824 239 829 247 829 c 2
252 759 m 1
 165 686 l 1
 155 622 l 1
 217 550 l 1
 373 550 l 1
 457 622 l 1
 467 686 l 1
 408 759 l 1
 252 759 l 1
EndSplineSet
EndChar

StartChar: colon
Encoding: 58 58 25
Width: 576
VWidth: 214
Flags: W
HStem: 293 70<251 275> 387 70<255 279> 573 70<297 321> 666 70<301 325>
VStem: 175 226
LayerCount: 2
Back
Fore
SplineSet
279 736 m 0
 371 736 l 2
 388 736 401 723 401 706 c 0
 401 704 401 703 401 701 c 2
 386 608 l 2
 383 589 363 573 344 573 c 2
 258 573 l 2
 256 573 254 572 252 572 c 0
 244 572 234 577 229 582 c 0
 227 583 l 0
 222 589 221 600 222 608 c 0
 222 610 222 611 222 613 c 2
 237 701 l 2
 240 720 260 736 279 736 c 0
301 666 m 1
 297 643 l 1
 321 643 l 1
 325 666 l 1
 301 666 l 1
232 457 m 0
 324 457 l 2
 341 457 355 444 355 427 c 0
 355 425 355 424 355 422 c 2
 339 328 l 2
 336 309 316 293 297 293 c 2
 211 293 l 2
 209 293 207 293 205 293 c 0
 197 293 188 298 183 303 c 0
 181 304 l 0
 176 310 174 320 175 328 c 0
 175 330 176 332 176 334 c 2
 191 422 l 2
 194 441 213 457 232 457 c 0
255 387 m 1
 251 363 l 1
 275 363 l 1
 279 387 l 1
 255 387 l 1
EndSplineSet
EndChar

StartChar: semicolon
Encoding: 59 59 26
Width: 576
VWidth: 214
Flags: W
HStem: 200 21G<188.5 201> 387 70<263 286> 573 70<306 329> 666 70<309 332>
VStem: 167 242
LayerCount: 2
Back
Fore
SplineSet
286 736 m 2
 379 736 l 2
 396 736 409 723 409 707 c 0
 409 705 408 703 408 701 c 2
 394 613 l 2
 394 611 394 610 394 608 c 0
 393 600 387 589 380 583 c 0
 378 582 l 0
 371 576 360 572 352 572 c 0
 350 572 349 573 347 573 c 2
 259 573 l 2
 242 573 229 586 229 602 c 0
 229 604 230 606 230 608 c 2
 245 701 l 2
 248 720 267 736 286 736 c 2
309 666 m 1
 306 643 l 1
 329 643 l 1
 332 666 l 1
 309 666 l 1
240 457 m 1
 333 457 l 2
 350 457 362 444 362 428 c 0
 362 426 362 424 362 422 c 2
 347 334 l 2
 347 332 347 330 347 328 c 0
 345 318 338 307 329 301 c 2
 224 211 l 2
 217 205 205 200 197 200 c 0
 180 200 167 213 167 229 c 0
 167 231 168 233 168 235 c 0
 169 243 176 254 183 260 c 2
 221 293 l 1
 212 293 l 2
 195 293 183 306 183 322 c 0
 183 324 183 326 183 328 c 2
 199 422 l 2
 202 441 221 457 240 457 c 1
263 387 m 1
 259 363 l 1
 282 363 l 1
 286 387 l 1
 263 387 l 1
EndSplineSet
EndChar

StartChar: less
Encoding: 60 60 27
Width: 576
VWidth: 214
Flags: W
HStem: 200 21G<348 361.5> 809 20G<451 465.5>
LayerCount: 2
Back
Fore
SplineSet
455 829 m 0
 457 829 l 0
 474 829 486 816 486 800 c 0
 486 798 485 796 485 794 c 0
 484 786 478 775 471 769 c 2
 175 515 l 1
 386 260 l 2
 391 254 393 243 392 235 c 0
 389 216 371 200 352 200 c 0
 344 200 333 205 328 211 c 2
 97 490 l 2
 92 496 90 507 91 515 c 0
 92 523 98 533 105 539 c 2
 429 818 l 2
 435 824 447 829 455 829 c 0
EndSplineSet
EndChar

StartChar: equal
Encoding: 61 61 28
Width: 576
VWidth: 214
Flags: W
HStem: 387 70<102.844 442.99> 573 70<133.844 473.99>
LayerCount: 2
Back
Fore
SplineSet
169 643 m 0
 449 643 l 2
 466 643 479 630 479 614 c 0
 479 612 479 610 479 608 c 0
 476 589 457 573 438 573 c 0
 158 573 l 2
 141 573 128 586 128 602 c 0
 128 604 129 606 129 608 c 0
 132 627 150 643 169 643 c 0
138 457 m 0
 418 457 l 2
 435 457 448 444 448 428 c 0
 448 426 448 424 448 422 c 0
 445 403 426 386 407 386 c 0
 407 387 l 2
 127 387 l 2
 127 386 l 0
 110 386 97 399 97 416 c 0
 97 418 98 420 98 422 c 0
 101 441 119 457 138 457 c 0
EndSplineSet
EndChar

StartChar: greater
Encoding: 62 62 29
Width: 576
VWidth: 214
Flags: W
HStem: 200 21G<110.5 123> 809 20G<214.5 228>
LayerCount: 2
Back
Fore
SplineSet
224 829 m 0
 232 829 243 824 248 818 c 2
 479 539 l 2
 484 533 486 523 485 515 c 0
 484 507 478 496 471 490 c 2
 147 211 l 2
 140 205 127 200 119 200 c 0
 102 200 90 213 90 229 c 0
 90 231 91 233 91 235 c 0
 92 243 98 254 105 260 c 2
 401 515 l 1
 190 769 l 2
 185 775 183 786 184 794 c 0
 187 813 205 829 224 829 c 0
EndSplineSet
EndChar

StartChar: question
Encoding: 63 63 30
Width: 576
VWidth: 214
Flags: W
HStem: 200 21G<196.5 214.5> 480 70<286 342> 759 70<220 377>
VStem: 175 70<205.144 275.688> 191 70<293.125 358.404> 206 70<391.144 421>
LayerCount: 2
Back
Fore
SplineSet
216 829 m 2xe8
 402 829 l 2
 410 829 421 824 426 818 c 2
 503 725 l 2
 508 719 510 709 509 701 c 2
 494 608 l 2
 493 600 486 589 479 583 c 2
 371 490 l 2
 364 484 352 480 344 480 c 0
 286 480 l 1
 277 422 l 2
 276 421 l 0
 273 402 255 386 236 386 c 0
 219 386 206 399 206 415 c 0
 206 417 206 419 206 421 c 0xe4
 207 422 l 2
 222 515 l 2
 225 534 244 550 263 550 c 2
 342 550 l 1
 426 622 l 1
 437 686 l 1
 377 759 l 1
 220 759 l 1
 123 676 l 2
 116 670 104 665 96 665 c 0
 79 665 66 678 66 694 c 0
 66 696 67 698 67 700 c 0
 68 708 75 719 82 725 c 2
 191 818 l 2
 198 824 208 829 216 829 c 2xe8
232 364 m 0
 249 364 262 351 262 335 c 0
 262 333 261 331 261 329 c 0
 261 328 l 2xe8
 245 235 l 2
 242 216 224 200 205 200 c 0
 188 200 175 213 175 229 c 0
 175 231 175 233 175 235 c 0xf0
 191 328 l 2
 191 329 l 0xe8
 194 348 213 364 232 364 c 0
EndSplineSet
EndChar

StartChar: at
Encoding: 64 64 31
Width: 576
VWidth: 214
Flags: W
HStem: 200 70<178 466.806> 293 70<214 350> 573 70<248 364> 666 70<244 400>
VStem: 339 70<412.141 464>
LayerCount: 2
Back
Fore
SplineSet
240 736 m 0
 426 736 l 2
 434 736 445 731 450 725 c 2
 526 632 l 2
 531 626 533 616 532 608 c 2
 501 422 l 2
 500 414 494 403 487 397 c 2
 380 304 l 2
 373 298 360 293 352 293 c 2
 166 293 l 2
 163 293 159 294 156 295 c 2
 178 270 l 1
 442 270 l 2
 459 270 473 257 473 240 c 0
 473 238 472 237 472 235 c 0
 469 216 449 200 430 200 c 0
 150 200 l 2
 142 200 133 205 128 211 c 2
 50 304 l 2
 45 310 43 320 44 328 c 2
 90 608 l 2
 91 616 97 626 104 632 c 2
 214 725 l 2
 221 731 232 736 240 736 c 0
244 666 m 1
 214 641 l 2
 217 642 221 643 224 643 c 2
 410 643 l 2
 413 643 417 642 420 641 c 2
 400 666 l 1
 244 666 l 1
188 618 m 1
 158 593 l 1
 116 343 l 1
 136 318 l 2
 136 321 138 325 138 328 c 2
 184 608 l 2
 184 611 186 615 188 618 c 1
440 618 m 2
 440 615 440 611 440 608 c 2
 409 422 l 2
 409 421 l 0
 409 418 408 415 406 412 c 2
 434 436 l 1
 460 593 l 1
 440 618 l 2
248 573 m 1
 214 363 l 1
 350 363 l 1
 378 387 l 2
 375 386 370 386 367 386 c 0
 350 386 339 399 339 415 c 0
 339 417 339 419 339 421 c 0
 339 422 l 2
 364 573 l 1
 248 573 l 1
EndSplineSet
EndChar

StartChar: A
Encoding: 65 65 32
Width: 576
VWidth: 214
Flags: W
HStem: 200 21G<56.5 74.5 428.5 446.5> 480 70<158 450> 809 20G<352 360>
LayerCount: 2
Back
Fore
SplineSet
356 829 m 0
 364 829 373 824 378 818 c 2
 533 632 l 2
 538 626 542 616 541 608 c 2
 527 520 l 2
 527 518 526 516 526 514 c 0
 526 512 525 511 525 509 c 2
 479 235 l 2
 476 216 456 200 437 200 c 0
 420 200 409 213 409 229 c 0
 409 231 409 233 409 235 c 0
 450 480 l 1
 146 480 l 1
 105 235 l 2
 102 216 84 200 65 200 c 0
 48 200 35 213 35 230 c 0
 35 232 35 233 35 235 c 0
 81 509 l 2
 81 511 82 513 82 515 c 0
 82 517 83 518 83 520 c 2
 97 608 l 2
 98 616 106 626 113 632 c 2
 330 818 l 2
 337 824 348 829 356 829 c 0
342 744 m 1
 165 593 l 1
 158 550 l 1
 462 550 l 1
 469 593 l 1
 342 744 l 1
EndSplineSet
EndChar

StartChar: B
Encoding: 66 66 33
Width: 576
VWidth: 214
Flags: W
HStem: 200 70<103 333> 480 70<150 368> 759 70<185 415>
LayerCount: 2
Back
Fore
SplineSet
162 829 m 2
 442 829 l 2
 450 829 459 824 464 818 c 2
 541 725 l 2
 546 719 550 709 549 701 c 2
 533 608 l 2
 532 600 524 589 517 583 c 2
 438 515 l 1
 494 446 l 2
 499 440 503 430 502 422 c 2
 487 328 l 2
 486 320 478 310 471 304 c 2
 363 211 l 2
 356 205 345 200 337 200 c 0
 63 200 l 2
 61 200 59 200 57 200 c 0
 49 200 40 205 35 210 c 0
 33 211 l 0
 28 217 26 227 27 235 c 0
 27 237 28 239 28 241 c 2
 73 509 l 2
 73 511 74 513 74 515 c 0
 74 517 75 518 75 520 c 2
 120 794 l 2
 123 813 143 829 162 829 c 2
185 759 m 1
 150 550 l 1
 380 550 l 1
 466 622 l 1
 476 686 l 1
 415 759 l 1
 185 759 l 1
138 480 m 1
 103 270 l 1
 333 270 l 1
 419 343 l 1
 430 407 l 1
 368 480 l 1
 138 480 l 1
EndSplineSet
EndChar

StartChar: C
Encoding: 67 67 34
Width: 576
VWidth: 214
Flags: W
HStem: 200 70<169 326> 759 70<251 408>
LayerCount: 2
Back
Fore
SplineSet
247 829 m 2
 433 829 l 2
 441 829 452 824 457 818 c 2
 534 725 l 2
 539 719 541 708 540 700 c 0
 537 681 518 665 499 665 c 0
 491 665 481 670 476 676 c 2
 408 759 l 1
 251 759 l 1
 166 686 l 1
 108 343 l 1
 169 270 l 1
 326 270 l 1
 422 353 l 2
 429 359 441 364 449 364 c 0
 466 364 479 351 479 335 c 0
 479 333 478 331 478 329 c 0
 477 321 471 310 464 304 c 2
 355 211 l 2
 348 205 337 200 329 200 c 0
 143 200 l 2
 135 200 124 205 119 211 c 2
 42 304 l 2
 37 310 35 320 36 328 c 2
 98 701 l 2
 99 709 105 719 112 725 c 2
 221 818 l 2
 228 824 239 829 247 829 c 2
EndSplineSet
EndChar

StartChar: D
Encoding: 68 68 35
Width: 576
VWidth: 214
Flags: W
HStem: 200 70<103 333> 759 70<185 415>
LayerCount: 2
Back
Fore
SplineSet
162 829 m 2
 442 829 l 2
 450 829 459 824 464 818 c 2
 541 725 l 2
 546 719 550 709 549 701 c 2
 487 328 l 2
 486 320 478 310 471 304 c 2
 363 211 l 2
 356 205 345 200 337 200 c 0
 63 200 l 2
 61 200 59 200 57 200 c 0
 49 200 40 205 35 210 c 0
 33 211 l 0
 28 217 26 227 27 235 c 0
 27 237 28 239 28 241 c 2
 120 794 l 2
 123 813 143 829 162 829 c 2
185 759 m 1
 103 270 l 1
 333 270 l 1
 419 343 l 1
 476 686 l 1
 415 759 l 1
 185 759 l 1
EndSplineSet
EndChar

StartChar: E
Encoding: 69 69 36
Width: 576
VWidth: 214
Flags: W
HStem: 200 70<95 458> 480 70<142 411.118> 759 70<177 551.844>
LayerCount: 2
Back
Fore
SplineSet
154 829 m 1
 526 829 l 2
 543 829 557 816 557 799 c 0
 557 797 557 796 557 794 c 0
 554 775 534 759 515 759 c 0
 177 759 l 1
 142 550 l 1
 388 550 l 2
 405 550 417 537 417 521 c 0
 417 519 416 517 416 515 c 0
 413 496 395 480 376 480 c 0
 130 480 l 1
 95 270 l 1
 433 270 l 2
 450 270 464 257 464 240 c 0
 464 238 463 237 463 235 c 0
 460 216 441 200 422 200 c 0
 50 200 l 2
 33 200 19 213 19 230 c 0
 19 232 19 233 19 235 c 2
 65 509 l 2
 65 511 66 513 66 515 c 0
 66 517 67 518 67 520 c 2
 113 794 l 2
 116 813 135 829 154 829 c 1
EndSplineSet
EndChar

StartChar: F
Encoding: 70 70 37
Width: 576
VWidth: 214
Flags: W
HStem: 200 21G<41.5 59.5> 480 70<142 411.118> 759 70<177 551.844>
LayerCount: 2
Back
Fore
SplineSet
154 829 m 1
 526 829 l 2
 543 829 557 816 557 799 c 0
 557 797 557 796 557 794 c 0
 554 775 534 759 515 759 c 0
 177 759 l 1
 142 550 l 1
 388 550 l 2
 405 550 417 537 417 521 c 0
 417 519 416 517 416 515 c 0
 413 496 395 480 376 480 c 0
 130 480 l 1
 89 235 l 2
 86 216 69 200 50 200 c 0
 33 200 19 213 19 230 c 0
 19 232 19 233 19 235 c 0
 65 509 l 2
 65 511 66 513 66 515 c 0
 66 517 67 518 67 520 c 2
 113 794 l 2
 116 813 135 829 154 829 c 1
EndSplineSet
EndChar

StartChar: G
Encoding: 71 71 38
Width: 576
VWidth: 214
Flags: W
HStem: 200 70<169 398> 480 70<258.076 433> 759 70<251 408>
LayerCount: 2
Back
Fore
SplineSet
247 829 m 2
 433 829 l 2
 441 829 452 824 457 818 c 2
 534 725 l 2
 539 719 541 708 540 700 c 0
 537 681 518 665 499 665 c 0
 491 665 481 670 476 676 c 2
 408 759 l 1
 251 759 l 1
 166 686 l 1
 108 343 l 1
 169 270 l 1
 398 270 l 1
 433 480 l 1
 282 480 l 2
 265 480 253 493 253 509 c 0
 253 511 253 513 253 515 c 0
 256 534 275 550 294 550 c 0
 480 550 l 2
 497 550 510 537 510 521 c 0
 510 519 509 517 509 515 c 2
 462 235 l 2
 459 216 441 200 422 200 c 2
 143 200 l 2
 135 200 124 205 119 211 c 2
 42 304 l 2
 37 310 35 320 36 328 c 2
 98 701 l 2
 99 709 105 719 112 725 c 2
 221 818 l 2
 228 824 239 829 247 829 c 2
EndSplineSet
EndChar

StartChar: H
Encoding: 72 72 39
Width: 576
VWidth: 214
Flags: W
HStem: 200 21G<41.5 59.5 413.5 431.5> 480 70<142 434> 809 20G<144.5 162.5 516.5 534.5>
LayerCount: 2
Back
Fore
SplineSet
154 829 m 0
 171 829 183 816 183 800 c 0
 183 798 183 796 183 794 c 0
 142 550 l 1
 446 550 l 1
 487 794 l 2
 490 813 507 829 526 829 c 0
 543 829 557 816 557 799 c 0
 557 797 557 796 557 794 c 0
 511 520 l 2
 511 518 510 516 510 514 c 0
 510 512 509 511 509 509 c 2
 463 235 l 2
 460 216 441 200 422 200 c 0
 405 200 393 213 393 229 c 0
 393 231 393 233 393 235 c 0
 434 480 l 1
 130 480 l 1
 89 235 l 2
 86 216 69 200 50 200 c 0
 33 200 19 213 19 230 c 0
 19 232 19 233 19 235 c 0
 65 509 l 2
 65 511 66 513 66 515 c 0
 66 517 67 518 67 520 c 2
 113 794 l 2
 116 813 135 829 154 829 c 0
EndSplineSet
EndChar

StartChar: I
Encoding: 73 73 40
Width: 576
VWidth: 214
Flags: W
HStem: 200 70<117.844 213 283 364.312> 759 70<211.688 295 365 458.156>
LayerCount: 2
Back
Fore
SplineSet
340 829 m 0
 342 829 344 829 346 829 c 2
 434 829 l 2
 451 829 463 816 463 800 c 0
 463 798 463 796 463 794 c 0
 460 775 442 759 423 759 c 0
 365 759 l 1
 283 270 l 1
 341 270 l 2
 358 270 370 257 370 241 c 0
 370 239 369 237 369 235 c 0
 366 216 349 200 330 200 c 0
 242 200 l 2
 240 200 238 200 236 200 c 0
 234 200 232 200 230 200 c 2
 142 200 l 2
 125 200 113 213 113 229 c 0
 113 231 113 233 113 235 c 0
 116 254 134 270 153 270 c 0
 213 270 l 1
 295 759 l 1
 235 759 l 2
 218 759 206 772 206 788 c 0
 206 790 207 792 207 794 c 0
 210 813 227 829 246 829 c 0
 334 829 l 2
 335 829 339 829 340 829 c 0
EndSplineSet
EndChar

StartChar: J
Encoding: 74 74 41
Width: 576
VWidth: 214
Flags: W
HStem: 200 70<207 271> 809 20G<463.5 481.5>
LayerCount: 2
Back
Fore
SplineSet
473 829 m 0
 490 829 501 816 501 800 c 0
 501 798 501 796 501 794 c 0
 423 328 l 2
 422 320 416 310 409 304 c 2
 302 211 l 2
 295 205 282 200 274 200 c 2
 182 200 l 2
 174 200 165 205 160 211 c 2
 81 304 l 2
 76 310 74 321 75 329 c 0
 78 348 96 364 115 364 c 0
 123 364 134 359 139 353 c 2
 207 270 l 1
 271 270 l 1
 356 343 l 1
 431 794 l 2
 434 813 454 829 473 829 c 0
EndSplineSet
EndChar

StartChar: K
Encoding: 75 75 42
Width: 576
VWidth: 214
Flags: W
HStem: 200 21G<41.5 59.5 418 431.5> 809 20G<144.5 162.5 522 534.5>
VStem: 19 70<204.709 275.871>
LayerCount: 2
Back
Fore
SplineSet
154 829 m 0
 171 829 183 816 183 800 c 0
 183 798 183 796 183 794 c 0
 135 506 l 1
 169 535 l 2
 171 538 176 541 179 543 c 2
 501 818 l 2
 508 824 518 829 526 829 c 0
 543 829 557 816 557 799 c 0
 557 797 557 796 557 794 c 0
 556 786 547 775 540 769 c 2
 244 515 l 1
 456 260 l 2
 461 254 464 243 463 235 c 0
 460 216 441 200 422 200 c 0
 414 200 404 205 399 211 c 2
 186 465 l 1
 118 407 l 1
 89 235 l 2
 86 216 69 200 50 200 c 0
 33 200 19 213 19 230 c 0
 19 232 19 233 19 235 c 0
 50 416 l 2
 50 417 50 420 50 421 c 0
 50 422 51 425 51 426 c 2
 113 794 l 2
 116 813 135 829 154 829 c 0
EndSplineSet
EndChar

StartChar: L
Encoding: 76 76 43
Width: 576
VWidth: 214
Flags: W
HStem: 200 70<142 504.844> 809 20G<189.5 209.5>
LayerCount: 2
Back
Fore
SplineSet
199 829 m 0
 201 829 l 0
 218 829 230 816 230 800 c 0
 230 798 229 796 229 794 c 0
 142 270 l 1
 480 270 l 2
 497 270 510 257 510 240 c 0
 510 238 510 237 510 235 c 0
 507 216 487 200 468 200 c 0
 96 200 l 2
 79 200 66 213 66 230 c 0
 66 232 66 233 66 235 c 2
 159 794 l 2
 162 813 180 829 199 829 c 0
EndSplineSet
EndChar

StartChar: M
Encoding: 77 77 44
Width: 576
VWidth: 214
Flags: W
HStem: 200 21G<41.5 59.5 413.5 431.5> 809 20G<143.5 158 522 534.5>
LayerCount: 2
Back
Fore
SplineSet
153 829 m 0
 154 829 l 0
 162 829 173 824 178 818 c 2
 312 657 l 1
 500 818 l 2
 507 824 518 829 526 829 c 0
 543 829 556 816 556 800 c 0
 556 798 556 796 556 794 c 2
 462 235 l 2
 459 216 441 200 422 200 c 0
 405 200 392 213 392 229 c 0
 392 231 392 233 392 235 c 0
 471 709 l 1
 336 593 l 1
 323 515 l 2
 320 496 301 480 282 480 c 0
 265 480 253 493 253 509 c 0
 253 511 253 513 253 515 c 2
 266 593 l 1
 169 709 l 1
 90 235 l 2
 87 216 69 200 50 200 c 0
 33 200 20 213 20 229 c 0
 20 231 20 233 20 235 c 0
 114 794 l 2
 117 813 134 829 153 829 c 0
EndSplineSet
EndChar

StartChar: N
Encoding: 78 78 45
Width: 576
VWidth: 214
Flags: W
HStem: 200 21G<42.5 60.5 414.5 432.5> 809 20G<145.5 163.5 517.5 535.5>
LayerCount: 2
Back
Fore
SplineSet
155 829 m 0
 172 829 184 816 184 800 c 0
 184 798 184 796 184 794 c 0
 170 715 l 1
 422 413 l 1
 486 794 l 2
 489 813 508 829 527 829 c 0
 544 829 556 816 556 800 c 0
 556 798 556 796 556 794 c 0
 479 333 l 2
 479 332 480 329 480 328 c 0
 480 327 477 324 477 323 c 2
 462 235 l 2
 459 216 442 200 423 200 c 0
 406 200 392 213 392 230 c 0
 392 232 392 233 392 235 c 0
 406 314 l 1
 154 616 l 1
 90 235 l 2
 87 216 70 200 51 200 c 0
 34 200 20 213 20 230 c 0
 20 232 20 233 20 235 c 0
 97 696 l 2
 97 697 98 700 98 701 c 0
 98 702 99 705 99 706 c 2
 114 794 l 2
 117 813 136 829 155 829 c 0
EndSplineSet
EndChar

StartChar: O
Encoding: 79 79 46
Width: 576
VWidth: 214
Flags: W
HStem: 200 70<169 326> 759 70<251 408>
LayerCount: 2
Back
Fore
SplineSet
247 829 m 2
 433 829 l 2
 441 829 451 824 456 818 c 2
 534 725 l 2
 539 719 541 709 540 701 c 2
 478 328 l 2
 477 320 471 310 464 304 c 2
 355 211 l 2
 348 205 336 200 328 200 c 0
 142 200 l 2
 134 200 125 205 120 211 c 2
 45 300 l 2
 41 303 37 309 36 314 c 0
 37 315 l 0
 37 319 35 325 36 329 c 0
 36 330 37 333 37 334 c 2
 98 701 l 2
 99 709 106 719 113 725 c 2
 221 818 l 2
 228 824 239 829 247 829 c 2
251 759 m 1
 165 686 l 1
 108 343 l 1
 169 270 l 1
 326 270 l 1
 410 343 l 1
 467 686 l 1
 408 759 l 1
 251 759 l 1
EndSplineSet
EndChar

StartChar: P
Encoding: 80 80 47
Width: 576
VWidth: 214
Flags: W
HStem: 200 21G<48.5 66.5> 480 70<150 380> 759 70<185 415>
LayerCount: 2
Back
Fore
SplineSet
162 829 m 2
 442 829 l 2
 450 829 459 824 464 818 c 2
 541 725 l 2
 546 719 550 709 549 701 c 2
 533 608 l 2
 532 600 524 589 517 583 c 2
 410 490 l 2
 403 484 392 480 384 480 c 0
 138 480 l 1
 97 235 l 2
 94 216 76 200 57 200 c 0
 40 200 27 213 27 230 c 0
 27 232 27 233 27 235 c 0
 73 509 l 2
 73 511 74 513 74 515 c 0
 74 517 75 518 75 520 c 2
 120 794 l 2
 123 813 143 829 162 829 c 2
185 759 m 1
 150 550 l 1
 380 550 l 1
 466 622 l 1
 476 686 l 1
 415 759 l 1
 185 759 l 1
EndSplineSet
EndChar

StartChar: Q
Encoding: 81 81 48
Width: 576
VWidth: 214
Flags: W
HStem: 200 70<169 326> 759 70<251 408>
LayerCount: 2
Back
Fore
SplineSet
247 829 m 2
 433 829 l 2
 441 829 452 824 457 818 c 2
 534 725 l 2
 539 719 541 709 540 701 c 2
 478 328 l 2
 477 320 471 310 464 304 c 2
 438 282 l 1
 457 260 l 2
 462 254 463 243 462 235 c 0
 459 216 441 200 422 200 c 0
 414 200 403 205 398 211 c 2
 381 232 l 1
 359 214 l 2
 355 210 348 205 343 203 c 0
 342 203 l 0
 338 202 333 200 329 200 c 0
 328 200 325 200 324 200 c 2
 143 200 l 2
 135 200 124 205 119 211 c 2
 42 304 l 2
 37 310 35 320 36 328 c 2
 98 701 l 2
 99 709 105 719 112 725 c 2
 221 818 l 2
 228 824 239 829 247 829 c 2
251 759 m 1
 166 686 l 1
 108 343 l 1
 169 270 l 1
 326 270 l 1
 339 282 l 1
 243 397 l 2
 238 403 237 414 238 422 c 0
 241 441 259 457 278 457 c 0
 286 457 297 452 302 446 c 2
 397 331 l 1
 410 343 l 1
 468 686 l 1
 408 759 l 1
 251 759 l 1
EndSplineSet
EndChar

StartChar: R
Encoding: 82 82 49
Width: 576
VWidth: 214
Flags: W
HStem: 200 21G<48.5 66.5 425 438.5> 480 70<150 182 282 380> 759 70<185 415>
LayerCount: 2
Back
Fore
SplineSet
162 829 m 2
 442 829 l 2
 450 829 459 824 464 818 c 2
 541 725 l 2
 546 719 550 709 549 701 c 2
 533 608 l 2
 532 600 524 589 517 583 c 2
 410 490 l 2
 403 484 392 480 384 480 c 0
 282 480 l 1
 463 260 l 2
 468 254 472 243 471 235 c 0
 468 216 448 200 429 200 c 0
 421 200 412 205 407 211 c 2
 182 480 l 1
 138 480 l 1
 97 235 l 2
 94 216 76 200 57 200 c 0
 40 200 27 213 27 230 c 0
 27 232 27 233 27 235 c 0
 73 509 l 2
 73 511 74 513 74 515 c 0
 74 517 75 518 75 520 c 2
 120 794 l 2
 123 813 143 829 162 829 c 2
185 759 m 1
 150 550 l 1
 204 550 l 2
 205 550 207 550 208 550 c 0
 209 550 213 550 214 550 c 2
 380 550 l 1
 466 622 l 1
 476 686 l 1
 415 759 l 1
 185 759 l 1
EndSplineSet
EndChar

StartChar: S
Encoding: 83 83 50
Width: 576
VWidth: 214
Flags: W
HStem: 200 70<169 325> 480 70<216 360> 759 70<251 407>
LayerCount: 2
Back
Fore
SplineSet
246 829 m 2
 432 829 l 2
 440 829 452 824 457 818 c 2
 533 725 l 2
 538 719 542 708 541 700 c 0
 538 681 518 665 499 665 c 0
 491 665 482 670 477 676 c 2
 407 759 l 1
 251 759 l 1
 165 686 l 1
 154 622 l 1
 216 550 l 1
 386 550 l 2
 394 550 405 545 410 539 c 2
 487 446 l 2
 492 440 494 430 493 422 c 2
 477 328 l 2
 476 320 470 310 463 304 c 2
 355 211 l 2
 348 205 336 200 328 200 c 0
 142 200 l 2
 134 200 124 205 119 211 c 2
 43 304 l 2
 38 310 34 321 35 329 c 0
 38 348 58 364 77 364 c 0
 85 364 94 359 99 353 c 2
 169 270 l 1
 325 270 l 1
 409 343 l 1
 420 407 l 1
 360 480 l 1
 188 480 l 2
 180 480 171 484 166 490 c 2
 89 583 l 2
 84 589 81 600 82 608 c 2
 97 701 l 2
 98 709 106 719 113 725 c 2
 221 818 l 2
 228 824 238 829 246 829 c 2
EndSplineSet
EndChar

StartChar: T
Encoding: 84 84 51
Width: 576
VWidth: 214
Flags: W
HStem: 200 21G<180.5 198.5> 759 70<71.1562 248 318 504.844>
LayerCount: 2
Back
Fore
SplineSet
294 829 m 0
 296 829 298 829 300 829 c 2
 480 829 l 2
 497 829 510 816 510 799 c 0
 510 797 510 796 510 794 c 0
 507 775 487 759 468 759 c 0
 318 759 l 1
 231 235 l 2
 228 216 208 200 189 200 c 0
 172 200 160 213 160 229 c 0
 160 231 161 233 161 235 c 0
 248 759 l 1
 96 759 l 2
 79 759 66 772 66 789 c 0
 66 791 66 792 66 794 c 0
 69 813 89 829 108 829 c 0
 288 829 l 2
 289 829 293 829 294 829 c 0
EndSplineSet
EndChar

StartChar: U
Encoding: 85 85 52
Width: 576
VWidth: 214
Flags: W
HStem: 200 70<161 318> 809 20G<136.5 155.5 509.5 527.5>
LayerCount: 2
Back
Fore
SplineSet
146 829 m 0
 147 829 l 0
 164 829 176 816 176 800 c 0
 176 798 176 796 176 794 c 0
 101 343 l 1
 161 270 l 1
 318 270 l 1
 403 343 l 1
 478 794 l 2
 481 813 500 829 519 829 c 0
 536 829 548 816 548 800 c 0
 548 798 548 796 548 794 c 0
 470 328 l 2
 469 320 463 310 456 304 c 2
 348 211 l 2
 341 205 329 200 321 200 c 0
 135 200 l 2
 127 200 117 205 112 211 c 2
 34 304 l 2
 29 310 27 320 28 328 c 2
 106 794 l 2
 109 813 127 829 146 829 c 0
EndSplineSet
EndChar

StartChar: V
Encoding: 86 86 53
Width: 576
VWidth: 214
Flags: W
HStem: 200 21G<216 224> 809 20G<128.5 147.5 501.5 519.5>
LayerCount: 2
Back
Fore
SplineSet
138 829 m 0
 139 829 l 0
 156 829 168 816 168 800 c 0
 168 798 168 796 168 794 c 0
 108 436 l 1
 234 285 l 1
 410 436 l 1
 470 794 l 2
 473 813 492 829 511 829 c 0
 528 829 540 816 540 800 c 0
 540 798 540 796 540 794 c 0
 478 422 l 2
 477 414 471 403 464 397 c 2
 247 211 l 2
 240 205 228 200 220 200 c 0
 212 200 202 205 197 211 c 2
 42 397 l 2
 37 403 35 414 36 422 c 2
 98 794 l 2
 101 813 119 829 138 829 c 0
EndSplineSet
EndChar

StartChar: W
Encoding: 87 87 54
Width: 576
VWidth: 214
Flags: W
HStem: 200 21G<41.5 54 418 431.5> 809 20G<143.5 162.5 516.5 534.5>
LayerCount: 2
Back
Fore
SplineSet
153 829 m 0
 154 829 l 0
 171 829 184 816 184 800 c 0
 184 798 184 796 184 794 c 0
 105 320 l 1
 240 436 l 1
 253 515 l 2
 256 534 275 550 294 550 c 0
 311 550 324 537 324 521 c 0
 324 519 323 517 323 515 c 0
 310 436 l 1
 407 320 l 1
 486 794 l 2
 489 813 507 829 526 829 c 0
 543 829 556 816 556 800 c 0
 556 798 556 796 556 794 c 0
 462 235 l 2
 459 216 441 200 422 200 c 0
 414 200 403 205 398 211 c 2
 264 372 l 1
 76 211 l 2
 69 205 58 200 50 200 c 0
 33 200 20 213 20 229 c 0
 20 231 20 233 20 235 c 2
 114 794 l 2
 117 813 134 829 153 829 c 0
EndSplineSet
EndChar

StartChar: X
Encoding: 88 88 55
Width: 576
VWidth: 214
Flags: W
HStem: 200 21G<41.5 59.5 413.5 431.5> 809 20G<143.5 162.5 516.5 534.5>
LayerCount: 2
Back
Fore
SplineSet
153 829 m 0
 154 829 l 0
 171 829 184 816 184 800 c 0
 184 798 184 796 184 794 c 0
 170 715 l 1
 296 564 l 1
 472 715 l 1
 486 794 l 2
 489 813 507 829 526 829 c 0
 543 829 556 816 556 800 c 0
 556 798 556 796 556 794 c 0
 540 701 l 2
 539 693 533 682 526 676 c 2
 338 515 l 1
 472 353 l 2
 477 347 479 336 478 328 c 2
 462 235 l 2
 459 216 441 200 422 200 c 0
 405 200 392 213 392 229 c 0
 392 231 392 233 392 235 c 0
 406 314 l 1
 280 465 l 1
 104 314 l 1
 90 235 l 2
 87 216 69 200 50 200 c 0
 33 200 20 213 20 229 c 0
 20 231 20 233 20 235 c 0
 36 328 l 2
 37 336 43 347 50 353 c 2
 239 515 l 1
 104 676 l 2
 99 682 97 693 98 701 c 2
 114 794 l 2
 117 813 134 829 153 829 c 0
EndSplineSet
EndChar

StartChar: Y
Encoding: 89 89 56
Width: 576
VWidth: 214
Flags: W
HStem: 200 21G<188.5 206.5> 809 20G<105.5 124.5 478.5 496.5>
LayerCount: 2
Back
Fore
SplineSet
115 829 m 0
 116 829 l 0
 133 829 145 816 145 800 c 0
 145 798 145 796 145 794 c 0
 132 715 l 1
 257 564 l 1
 434 715 l 1
 447 794 l 2
 450 813 469 829 488 829 c 0
 505 829 517 816 517 800 c 0
 517 798 517 796 517 794 c 0
 501 701 l 2
 500 693 494 682 487 676 c 2
 282 500 l 1
 238 235 l 2
 235 216 216 200 197 200 c 0
 180 200 167 213 167 229 c 0
 167 231 168 233 168 235 c 0
 212 500 l 1
 65 676 l 2
 60 682 58 693 59 701 c 2
 75 794 l 2
 78 813 96 829 115 829 c 0
EndSplineSet
EndChar

StartChar: Z
Encoding: 90 90 57
Width: 576
VWidth: 214
Flags: W
HStem: 200 70<95 458> 759 70<118 481>
LayerCount: 2
Back
Fore
SplineSet
154 829 m 0
 526 829 l 2
 543 829 557 816 557 799 c 0
 557 797 557 796 557 794 c 2
 541 701 l 2
 540 693 532 682 525 676 c 2
 103 314 l 1
 95 270 l 1
 433 270 l 2
 450 270 464 257 464 240 c 0
 464 238 463 237 463 235 c 0
 460 216 441 200 422 200 c 0
 50 200 l 2
 33 200 19 213 19 230 c 0
 19 232 19 233 19 235 c 2
 35 328 l 2
 36 336 44 347 51 353 c 2
 473 715 l 1
 481 759 l 1
 143 759 l 2
 126 759 112 772 112 789 c 0
 112 791 113 792 113 794 c 0
 116 813 135 829 154 829 c 0
EndSplineSet
EndChar

StartChar: bracketleft
Encoding: 91 91 58
Width: 576
VWidth: 214
Flags: W
HStem: 200 70<189 364.312> 759 70<271 458.156>
LayerCount: 2
Back
Fore
SplineSet
246 829 m 0
 432 829 l 2
 434 829 l 0
 451 829 463 816 463 800 c 0
 463 798 463 796 463 794 c 0
 460 775 442 759 423 759 c 0
 421 759 l 2
 271 759 l 1
 189 270 l 1
 339 270 l 2
 341 270 l 0
 358 270 370 257 370 241 c 0
 370 239 369 237 369 235 c 0
 366 216 349 200 330 200 c 0
 328 200 l 2
 142 200 l 2
 125 200 113 213 113 229 c 0
 113 231 113 233 113 235 c 2
 207 794 l 2
 210 813 227 829 246 829 c 0
EndSplineSet
EndChar

StartChar: backslash
Encoding: 92 92 59
Width: 576
VWidth: 214
Flags: W
HStem: 200 21G<472 485.5>
LayerCount: 2
Back
Fore
SplineSet
100 736 m 0
 108 736 118 731 123 725 c 2
 510 260 l 2
 515 254 518 243 517 235 c 0
 514 216 495 200 476 200 c 0
 468 200 458 205 453 211 c 2
 66 676 l 2
 61 682 58 693 59 701 c 0
 62 720 81 736 100 736 c 0
EndSplineSet
EndChar

StartChar: bracketright
Encoding: 93 93 60
Width: 576
VWidth: 214
Flags: W
HStem: 200 70<117.844 305> 759 70<211.688 387>
LayerCount: 2
Back
Fore
SplineSet
246 829 m 0
 434 829 l 2
 451 829 463 816 463 800 c 0
 463 798 463 796 463 794 c 2
 369 235 l 2
 366 216 349 200 330 200 c 2
 142 200 l 2
 125 200 113 213 113 229 c 0
 113 231 113 233 113 235 c 0
 116 254 134 270 153 270 c 0
 305 270 l 1
 387 759 l 1
 235 759 l 2
 218 759 206 772 206 788 c 0
 206 790 207 792 207 794 c 0
 210 813 227 829 246 829 c 0
EndSplineSet
EndChar

StartChar: asciicircum
Encoding: 94 94 61
Width: 576
VWidth: 214
Flags: W
HStem: 479 257
LayerCount: 2
Back
Fore
SplineSet
325 736 m 0
 333 736 342 731 347 725 c 2
 502 539 l 2
 507 533 511 522 510 514 c 0
 507 495 487 479 468 479 c 0
 460 479 451 484 446 490 c 2
 311 651 l 1
 122 490 l 2
 115 484 104 479 96 479 c 0
 79 479 66 492 66 509 c 0
 66 511 66 512 66 514 c 0
 67 522 75 533 82 539 c 2
 299 725 l 2
 306 731 317 736 325 736 c 0
EndSplineSet
EndChar

StartChar: underscore
Encoding: 95 95 62
Width: 576
VWidth: 214
Flags: W
HStem: 107 70<-67.9241 643.924>
LayerCount: 2
Back
Fore
SplineSet
-32 177 m 0
 620 177 l 2
 637 177 649 164 649 148 c 0
 649 146 649 144 649 142 c 0
 646 123 627 107 608 107 c 0
 -44 107 l 2
 -61 107 -73 120 -73 136 c 0
 -73 138 -73 140 -73 142 c 0
 -70 161 -51 177 -32 177 c 0
EndSplineSet
EndChar

StartChar: grave
Encoding: 96 96 63
Width: 576
VWidth: 214
Flags: W
HStem: 572 257<286.001 291.999>
VStem: 222 70<787.656 823.404>
LayerCount: 2
Back
Fore
SplineSet
263 829 m 0
 275 829 289 820 292 809 c 2
 353 623 l 2
 354 619 355 612 354 607 c 0
 351 588 332 572 313 572 c 0
 301 572 289 581 286 592 c 2
 223 778 l 2
 222 782 221 789 222 794 c 0
 225 813 244 829 263 829 c 0
EndSplineSet
EndChar

StartChar: a
Encoding: 97 97 64
Width: 576
VWidth: 214
Flags: W
HStem: 200 70<208 272> 480 70<243 307> 573 70<125.156 323>
LayerCount: 2
Back
Fore
SplineSet
162 643 m 0
 348 643 l 2
 356 643 365 638 370 632 c 2
 449 539 l 2
 454 533 456 523 455 515 c 2
 440 426 l 2
 440 425 439 422 439 421 c 0
 439 420 438 417 438 416 c 2
 426 343 l 1
 494 260 l 2
 499 254 503 243 502 235 c 0
 499 216 479 200 460 200 c 0
 452 200 443 205 438 211 c 2
 382 279 l 1
 300 211 l 2
 293 205 282 200 274 200 c 2
 182 200 l 2
 174 200 163 205 158 211 c 2
 82 304 l 2
 77 310 73 320 74 328 c 2
 89 422 l 2
 90 430 98 440 105 446 c 2
 213 539 l 2
 220 545 233 550 241 550 c 2
 333 550 l 2
 336 550 339 549 342 548 c 2
 323 573 l 1
 151 573 l 2
 134 573 120 586 120 603 c 0
 120 605 120 606 120 608 c 0
 123 627 143 643 162 643 c 0
243 480 m 1
 157 407 l 1
 146 343 l 1
 208 270 l 1
 272 270 l 1
 356 343 l 1
 367 407 l 1
 307 480 l 1
 243 480 l 1
EndSplineSet
EndChar

StartChar: b
Encoding: 98 98 65
Width: 576
VWidth: 214
Flags: W
HStem: 200 70<166 303> 573 70<228 353> 809 20G<214.5 232.5>
LayerCount: 2
Back
Fore
SplineSet
224 829 m 0
 241 829 253 816 253 800 c 0
 253 798 253 796 253 794 c 0
 228 643 l 1
 380 643 l 2
 388 643 397 638 402 632 c 2
 479 539 l 2
 484 533 487 523 486 515 c 2
 455 328 l 2
 454 320 447 310 440 304 c 2
 332 211 l 2
 325 205 314 200 306 200 c 2
 119 200 l 2
 102 200 89 213 89 229 c 0
 89 231 90 233 90 235 c 2
 151 602 l 2
 151 604 152 606 152 608 c 0
 152 610 153 611 153 613 c 2
 183 794 l 2
 186 813 205 829 224 829 c 0
216 573 m 1
 166 270 l 1
 303 270 l 1
 388 343 l 1
 414 500 l 1
 353 573 l 1
 216 573 l 1
EndSplineSet
EndChar

StartChar: c
Encoding: 99 99 66
Width: 576
VWidth: 214
Flags: W
HStem: 200 70<231 295> 573 70<281 345>
LayerCount: 2
Back
Fore
SplineSet
279 643 m 0
 371 643 l 2
 379 643 390 638 395 632 c 2
 472 539 l 2
 477 533 478 522 477 514 c 0
 474 495 457 479 438 479 c 0
 430 479 418 484 413 490 c 2
 345 573 l 1
 281 573 l 1
 197 500 l 1
 171 343 l 1
 231 270 l 1
 295 270 l 1
 391 353 l 2
 398 359 410 364 418 364 c 0
 435 364 447 351 447 335 c 0
 447 333 447 331 447 329 c 0
 446 321 439 310 432 304 c 2
 325 211 l 2
 318 205 305 200 297 200 c 2
 205 200 l 2
 197 200 186 205 181 211 c 2
 104 304 l 2
 99 310 97 320 98 328 c 2
 130 515 l 2
 131 523 137 533 144 539 c 2
 251 632 l 2
 258 638 271 643 279 643 c 0
EndSplineSet
EndChar

StartChar: d
Encoding: 100 100 67
Width: 576
VWidth: 214
Flags: W
HStem: 200 70<208 344> 573 70<258 394> 809 20G<462.5 480.5>
LayerCount: 2
Back
Fore
SplineSet
472 829 m 0
 489 829 502 816 502 800 c 0
 502 798 501 796 501 794 c 0
 471 613 l 2
 471 611 471 610 471 608 c 0
 471 606 469 604 469 602 c 2
 408 235 l 2
 405 216 386 200 367 200 c 2
 181 200 l 2
 173 200 163 205 158 211 c 2
 81 304 l 2
 76 310 74 320 75 328 c 2
 106 515 l 2
 107 523 113 533 120 539 c 2
 228 632 l 2
 235 638 247 643 255 643 c 0
 406 643 l 1
 431 794 l 2
 434 813 453 829 472 829 c 0
258 573 m 1
 173 500 l 1
 147 343 l 1
 208 270 l 1
 344 270 l 1
 394 573 l 1
 258 573 l 1
EndSplineSet
EndChar

StartChar: e
Encoding: 101 101 68
Width: 576
VWidth: 214
Flags: W
HStem: 200 70<231 426.924> 387 70<189 399> 573 70<281 345>
LayerCount: 2
Back
Fore
SplineSet
278 643 m 0
 372 643 l 2
 380 643 389 638 394 632 c 2
 472 539 l 2
 477 533 480 523 479 515 c 2
 463 422 l 2
 460 403 441 387 422 387 c 2
 177 387 l 1
 170 343 l 1
 231 270 l 1
 403 270 l 2
 420 270 432 257 432 241 c 0
 432 239 432 237 432 235 c 0
 429 216 410 200 391 200 c 0
 204 200 l 2
 196 200 187 205 182 211 c 2
 104 304 l 2
 99 310 96 320 97 328 c 2
 112 416 l 2
 112 418 113 420 113 422 c 0
 113 424 114 425 114 427 c 2
 129 515 l 2
 130 523 137 533 144 539 c 2
 252 632 l 2
 259 638 270 643 278 643 c 0
281 573 m 1
 196 500 l 1
 189 457 l 1
 399 457 l 1
 406 500 l 1
 345 573 l 1
 281 573 l 1
EndSplineSet
EndChar

StartChar: f
Encoding: 102 102 69
Width: 576
VWidth: 214
Flags: W
HStem: 200 21G<203.5 221.5> 480 70<141.882 225 307 388.156> 759 70<341 434.118>
LayerCount: 2
Back
Fore
SplineSet
317 829 m 1
 411 829 l 2
 428 829 440 816 440 800 c 0
 440 798 439 796 439 794 c 0
 436 775 418 759 399 759 c 0
 341 759 l 1
 307 550 l 1
 365 550 l 2
 382 550 393 537 393 521 c 0
 393 519 393 517 393 515 c 0
 390 496 372 480 353 480 c 0
 295 480 l 1
 254 235 l 2
 251 216 231 200 212 200 c 0
 195 200 184 213 184 229 c 0
 184 231 184 233 184 235 c 0
 225 480 l 1
 165 480 l 2
 148 480 136 493 136 509 c 0
 136 511 137 513 137 515 c 0
 140 534 158 550 177 550 c 0
 237 550 l 1
 277 794 l 2
 280 813 298 829 317 829 c 1
EndSplineSet
EndChar

StartChar: g
Encoding: 103 103 70
Width: 576
VWidth: 214
Flags: W
HStem: 107 70<223 287> 293 70<254 318> 573 70<289 353>
LayerCount: 2
Back
Fore
SplineSet
286 643 m 0
 379 643 l 2
 387 643 397 638 402 632 c 2
 480 539 l 2
 485 533 487 523 486 515 c 2
 471 427 l 2
 471 426 471 423 471 422 c 0
 471 421 469 418 469 417 c 2
 439 235 l 2
 438 227 432 217 425 211 c 2
 317 118 l 2
 310 112 298 107 290 107 c 2
 197 107 l 2
 189 107 180 112 175 118 c 2
 97 211 l 2
 92 217 89 228 90 236 c 0
 93 255 112 271 131 271 c 0
 139 271 149 266 154 260 c 2
 223 177 l 1
 287 177 l 1
 372 250 l 1
 386 337 l 1
 348 304 l 2
 341 298 329 293 321 293 c 2
 228 293 l 2
 220 293 211 298 206 304 c 2
 128 397 l 2
 123 403 120 414 121 422 c 2
 137 515 l 2
 138 523 145 533 152 539 c 2
 260 632 l 2
 267 638 278 643 286 643 c 0
289 573 m 1
 204 500 l 1
 194 436 l 1
 254 363 l 1
 318 363 l 1
 403 436 l 1
 413 500 l 1
 353 573 l 1
 289 573 l 1
EndSplineSet
EndChar

StartChar: h
Encoding: 104 104 71
Width: 576
VWidth: 214
Flags: W
HStem: 200 21G<110.5 128.5 390.5 408.5> 573 70<228 353> 809 20G<214.5 232.5>
LayerCount: 2
Back
Fore
SplineSet
224 829 m 0
 241 829 253 816 253 800 c 0
 253 798 253 796 253 794 c 0
 228 643 l 1
 380 643 l 2
 388 643 397 638 402 632 c 2
 479 539 l 2
 484 533 487 523 486 515 c 2
 440 235 l 2
 437 216 418 200 399 200 c 0
 382 200 369 213 369 229 c 0
 369 231 370 233 370 235 c 0
 414 500 l 1
 353 573 l 1
 216 573 l 1
 160 235 l 2
 157 216 138 200 119 200 c 0
 102 200 89 213 89 229 c 0
 89 231 90 233 90 235 c 0
 151 602 l 2
 151 604 152 606 152 608 c 0
 152 610 153 611 153 613 c 2
 183 794 l 2
 186 813 205 829 224 829 c 0
EndSplineSet
EndChar

StartChar: i
Encoding: 105 105 72
Width: 576
VWidth: 214
Flags: W
HStem: 200 21G<234.5 252.5>
VStem: 276 70<577.596 648.688> 292 70<660.312 730.856>
LayerCount: 2
Back
Fore
SplineSet
332 736 m 0xa0
 333 736 l 0
 350 736 362 723 362 707 c 0
 362 705 362 703 362 701 c 0xa0
 346 608 l 2
 346 607 l 0
 343 588 324 572 305 572 c 0
 288 572 276 585 276 601 c 0
 276 603 276 605 276 607 c 0
 276 608 l 2xc0
 292 701 l 2
 295 720 313 736 332 736 c 0xa0
301 550 m 0
 302 550 l 0
 319 550 331 537 331 521 c 0
 331 519 331 517 331 515 c 0
 284 235 l 2
 281 216 262 200 243 200 c 0
 226 200 214 213 214 229 c 0
 214 231 214 233 214 235 c 0
 261 515 l 2
 264 534 282 550 301 550 c 0
EndSplineSet
EndChar

StartChar: j
Encoding: 106 106 73
Width: 576
VWidth: 214
Flags: W
HStem: 107 70<207 271>
VStem: 415 70<577.144 648.688> 431 70<660.312 730.234>
LayerCount: 2
Back
Fore
SplineSet
473 736 m 0xa0
 490 736 501 723 501 707 c 0
 501 705 501 703 501 701 c 0xa0
 485 608 l 2
 485 607 l 0
 482 588 464 572 445 572 c 0
 428 572 415 585 415 602 c 0
 415 604 415 605 415 607 c 0
 415 608 l 2xc0
 431 701 l 2
 434 720 454 736 473 736 c 0xa0
442 550 m 0
 459 550 470 537 470 521 c 0
 470 519 470 517 470 515 c 0
 423 235 l 2
 422 227 416 217 409 211 c 2
 302 118 l 2
 295 112 282 107 274 107 c 2
 182 107 l 2
 174 107 165 112 160 118 c 2
 81 211 l 2
 76 217 74 228 75 236 c 0
 78 255 96 271 115 271 c 0
 123 271 134 266 139 260 c 2
 207 177 l 1
 271 177 l 1
 356 250 l 1
 400 515 l 2
 403 534 423 550 442 550 c 0
EndSplineSet
EndChar

StartChar: k
Encoding: 107 107 74
Width: 576
VWidth: 214
Flags: W
HStem: 200 21G<102.5 120.5 387 400.5> 623 20G<461 473.5> 809 20G<206.5 224.5>
LayerCount: 2
Back
Fore
SplineSet
216 829 m 0
 233 829 246 816 246 800 c 0
 246 798 245 796 245 794 c 0
 182 413 l 1
 216 442 l 2
 218 445 223 448 226 450 c 2
 438 632 l 2
 445 638 457 643 465 643 c 0
 482 643 495 630 495 614 c 0
 495 612 494 610 494 608 c 0
 493 600 486 589 479 583 c 2
 291 422 l 1
 425 260 l 2
 430 254 433 243 432 235 c 0
 429 216 410 200 391 200 c 0
 383 200 373 205 368 211 c 2
 233 372 l 1
 165 314 l 1
 152 235 l 2
 149 216 130 200 111 200 c 0
 94 200 81 213 81 229 c 0
 81 231 82 233 82 235 c 0
 97 323 l 2
 97 324 97 327 97 328 c 0
 97 329 98 332 98 333 c 2
 175 794 l 2
 178 813 197 829 216 829 c 0
EndSplineSet
EndChar

StartChar: l
Encoding: 108 108 75
Width: 576
VWidth: 214
Flags: W
HStem: 200 70<282 364.924> 809 20G<329.5 348.5>
LayerCount: 2
Back
Fore
SplineSet
339 829 m 0
 340 829 l 0
 357 829 370 816 370 800 c 0
 370 798 369 796 369 794 c 0
 282 270 l 1
 340 270 l 2
 341 270 l 0
 358 270 370 257 370 241 c 0
 370 239 370 237 370 235 c 0
 367 216 348 200 329 200 c 0
 328 200 l 2
 235 200 l 2
 218 200 206 213 206 229 c 0
 206 231 206 233 206 235 c 2
 299 794 l 2
 302 813 320 829 339 829 c 0
EndSplineSet
EndChar

StartChar: m
Encoding: 109 109 76
Width: 576
VWidth: 214
Flags: W
HStem: 200 21G<64.5 82.5 250.5 268.5 436.5 454.5> 623 20G<137.5 155.5 236 244 422 430>
VStem: 106 70<599 637.404>
LayerCount: 2
Back
Fore
SplineSet
147 643 m 0
 164 643 176 630 176 614 c 0
 176 612 176 610 176 608 c 0
 174 599 l 1
 214 632 l 2
 221 638 232 643 240 643 c 0
 248 643 258 638 263 632 c 2
 320 564 l 1
 400 632 l 2
 407 638 418 643 426 643 c 0
 434 643 444 638 449 632 c 2
 526 539 l 2
 531 533 533 523 532 515 c 2
 486 235 l 2
 483 216 464 200 445 200 c 0
 428 200 415 213 415 229 c 0
 415 231 416 233 416 235 c 0
 460 500 l 1
 412 558 l 1
 344 500 l 1
 300 235 l 2
 297 216 278 200 259 200 c 0
 242 200 229 213 229 229 c 0
 229 231 230 233 230 235 c 0
 274 500 l 1
 226 558 l 1
 158 500 l 1
 114 235 l 2
 111 216 92 200 73 200 c 0
 56 200 43 213 43 229 c 0
 43 231 44 233 44 235 c 0
 89 509 l 2
 89 510 90 513 90 514 c 0
 90 515 91 518 91 519 c 2
 106 608 l 2
 109 627 128 643 147 643 c 0
EndSplineSet
EndChar

StartChar: n
Encoding: 110 110 77
Width: 576
VWidth: 214
Flags: W
HStem: 200 21G<110.5 128.5 390.5 408.5> 573 70<289 353>
VStem: 153 70<599 637.129>
LayerCount: 2
Back
Fore
SplineSet
287 643 m 0
 379 643 l 2
 387 643 398 638 403 632 c 2
 479 539 l 2
 484 533 486 523 485 515 c 2
 439 235 l 2
 436 216 418 200 399 200 c 0
 382 200 368 213 368 230 c 0
 368 232 369 233 369 235 c 0
 413 500 l 1
 353 573 l 1
 289 573 l 1
 205 500 l 1
 161 235 l 2
 158 216 138 200 119 200 c 0
 102 200 90 213 90 229 c 0
 90 231 91 233 91 235 c 0
 137 515 l 1
 153 608 l 2
 156 627 174 642 193 642 c 0
 210 642 223 629 223 613 c 0
 223 611 223 610 223 608 c 2
 221 599 l 1
 259 632 l 2
 266 638 279 643 287 643 c 0
EndSplineSet
EndChar

StartChar: o
Encoding: 111 111 78
Width: 576
VWidth: 214
Flags: W
HStem: 200 70<231 295> 573 70<281 345>
LayerCount: 2
Back
Fore
SplineSet
279 643 m 0
 371 643 l 2
 379 643 390 638 395 632 c 2
 472 539 l 2
 477 533 479 523 478 515 c 2
 446 328 l 2
 445 320 439 310 432 304 c 2
 325 211 l 2
 318 205 305 200 297 200 c 2
 205 200 l 2
 197 200 188 205 183 211 c 2
 108 300 l 2
 104 303 99 309 98 314 c 0
 98 315 l 0
 98 319 98 325 99 329 c 0
 99 330 99 333 99 334 c 2
 130 515 l 2
 131 523 137 533 144 539 c 2
 253 632 l 2
 260 638 271 643 279 643 c 0
281 573 m 1
 197 500 l 1
 171 343 l 1
 231 270 l 1
 295 270 l 1
 379 343 l 1
 405 500 l 1
 345 573 l 1
 281 573 l 1
EndSplineSet
EndChar

StartChar: p
Encoding: 112 112 79
Width: 576
VWidth: 214
Flags: W
HStem: 107 21G<102.5 120.5> 293 70<189 326> 573 70<224 361>
LayerCount: 2
Back
Fore
SplineSet
200 643 m 0
 388 643 l 2
 396 643 405 638 410 632 c 2
 487 539 l 2
 492 533 495 523 494 515 c 2
 479 422 l 2
 478 414 471 403 464 397 c 2
 355 304 l 2
 348 298 337 293 329 293 c 2
 177 293 l 1
 152 142 l 2
 149 123 130 107 111 107 c 0
 94 107 82 120 82 136 c 0
 82 138 82 140 82 142 c 0
 112 323 l 2
 112 325 113 327 113 329 c 0
 113 331 114 332 114 334 c 2
 160 608 l 2
 163 627 181 643 200 643 c 0
224 573 m 1
 189 363 l 1
 326 363 l 1
 411 436 l 1
 422 500 l 1
 361 573 l 1
 224 573 l 1
EndSplineSet
EndChar

StartChar: q
Encoding: 113 113 80
Width: 576
VWidth: 214
Flags: W
HStem: 107 70<398 481.844> 293 70<223 348> 573 70<258 394>
LayerCount: 2
Back
Fore
SplineSet
254 643 m 0
 440 643 l 2
 457 643 471 630 471 613 c 0
 471 611 470 610 470 608 c 2
 425 334 l 2
 425 332 424 330 424 328 c 0
 424 326 423 325 423 323 c 2
 398 177 l 1
 456 177 l 2
 473 177 487 164 487 147 c 0
 487 145 487 144 487 142 c 0
 484 123 464 107 445 107 c 0
 351 107 l 2
 334 107 322 120 322 136 c 0
 322 138 323 140 323 142 c 2
 348 293 l 1
 196 293 l 2
 188 293 179 298 174 304 c 2
 95 397 l 2
 90 403 88 414 89 422 c 2
 105 515 l 2
 106 523 112 533 119 539 c 2
 228 632 l 2
 235 638 246 643 254 643 c 0
258 573 m 1
 172 500 l 1
 162 436 l 1
 223 363 l 1
 359 363 l 1
 394 573 l 1
 258 573 l 1
EndSplineSet
EndChar

StartChar: r
Encoding: 114 114 81
Width: 576
VWidth: 214
Flags: W
HStem: 200 21G<164.5 182.5> 573 70<343 457.924>
LayerCount: 2
Back
Fore
SplineSet
154 643 m 0
 162 643 172 638 177 632 c 2
 234 564 l 1
 314 632 l 2
 321 638 332 643 340 643 c 2
 433 643 l 2
 434 643 l 0
 451 643 463 630 463 614 c 0
 463 612 463 610 463 608 c 0
 460 589 441 573 422 573 c 0
 421 573 l 2
 343 573 l 1
 258 500 l 1
 214 235 l 2
 211 216 192 200 173 200 c 0
 156 200 143 213 143 229 c 0
 143 231 144 233 144 235 c 0
 188 500 l 1
 120 583 l 2
 115 589 112 600 113 608 c 0
 116 627 135 643 154 643 c 0
EndSplineSet
EndChar

StartChar: s
Encoding: 115 115 82
Width: 576
VWidth: 214
Flags: W
HStem: 200 70<231 295> 387 70<262 314> 573 70<281 345>
LayerCount: 2
Back
Fore
SplineSet
278 643 m 0
 371 643 l 2
 379 643 389 638 394 632 c 2
 472 539 l 2
 477 533 479 522 478 514 c 0
 475 495 457 479 438 479 c 0
 430 479 419 484 414 490 c 2
 345 573 l 1
 281 573 l 1
 214 515 l 1
 262 457 l 1
 340 457 l 2
 348 457 358 452 363 446 c 2
 441 353 l 2
 446 347 447 336 446 328 c 0
 445 320 439 310 432 304 c 2
 324 211 l 2
 317 205 305 200 297 200 c 2
 204 200 l 2
 196 200 187 205 182 211 c 2
 104 304 l 2
 99 310 97 321 98 329 c 0
 101 348 119 364 138 364 c 0
 146 364 157 359 162 353 c 2
 231 270 l 1
 295 270 l 1
 362 328 l 1
 314 387 l 1
 235 387 l 2
 227 387 218 391 213 397 c 2
 135 490 l 2
 130 496 128 507 129 515 c 0
 130 523 137 533 144 539 c 2
 252 632 l 2
 259 638 270 643 278 643 c 0
EndSplineSet
EndChar

StartChar: t
Encoding: 116 116 83
Width: 576
VWidth: 214
Flags: W
HStem: 200 70<268 349.156> 573 70<164.844 248 330 411.156> 809 20G<315.5 333.5>
LayerCount: 2
Back
Fore
SplineSet
325 829 m 0
 342 829 355 816 355 799 c 0
 355 797 355 796 355 794 c 0
 330 643 l 1
 388 643 l 2
 405 643 416 630 416 614 c 0
 416 612 416 610 416 608 c 0
 413 589 395 573 376 573 c 0
 318 573 l 1
 268 270 l 1
 326 270 l 2
 343 270 354 257 354 241 c 0
 354 239 354 237 354 235 c 0
 351 216 333 200 314 200 c 0
 220 200 l 2
 203 200 191 213 191 229 c 0
 191 231 192 233 192 235 c 2
 248 573 l 1
 188 573 l 2
 171 573 160 586 160 602 c 0
 160 604 160 606 160 608 c 0
 163 627 181 643 200 643 c 0
 260 643 l 1
 285 794 l 2
 288 813 306 829 325 829 c 0
EndSplineSet
EndChar

StartChar: u
Encoding: 117 117 84
Width: 576
VWidth: 214
Flags: W
HStem: 200 70<159 367> 623 20G<175.5 193.5 455.5 473.5>
LayerCount: 2
Back
Fore
SplineSet
185 643 m 0
 202 643 216 630 216 613 c 0
 216 611 215 610 215 608 c 0
 159 270 l 1
 367 270 l 1
 423 608 l 2
 426 627 446 643 465 643 c 0
 482 643 494 630 494 614 c 0
 494 612 493 610 493 608 c 0
 431 235 l 2
 428 216 410 200 391 200 c 2
 111 200 l 2
 94 200 82 213 82 229 c 0
 82 231 83 233 83 235 c 2
 145 608 l 2
 148 627 166 643 185 643 c 0
EndSplineSet
EndChar

StartChar: v
Encoding: 118 118 85
Width: 576
VWidth: 214
Flags: W
HStem: 200 21G<231 239> 623 20G<112.5 131.5 485.5 503.5>
LayerCount: 2
Back
Fore
SplineSet
122 643 m 0
 123 643 l 0
 140 643 153 630 153 614 c 0
 153 612 152 610 152 608 c 0
 124 436 l 1
 250 285 l 1
 426 436 l 1
 454 608 l 2
 457 627 476 643 495 643 c 0
 512 643 525 630 525 614 c 0
 525 612 524 610 524 608 c 0
 493 422 l 2
 492 414 486 403 479 397 c 2
 262 211 l 2
 255 205 243 200 235 200 c 0
 227 200 217 205 212 211 c 2
 57 397 l 2
 52 403 50 414 51 422 c 2
 82 608 l 2
 85 627 103 643 122 643 c 0
EndSplineSet
EndChar

StartChar: w
Encoding: 119 119 86
Width: 576
VWidth: 214
Flags: W
HStem: 200 21G<146 154 332 340> 623 20G<120.5 139.5 493.5 511.5>
LayerCount: 2
Back
Fore
SplineSet
130 643 m 0
 131 643 l 0
 148 643 161 630 161 614 c 0
 161 612 160 610 160 608 c 0
 116 343 l 1
 164 285 l 1
 232 343 l 1
 245 422 l 2
 248 441 267 456 286 456 c 0
 303 456 316 443 316 427 c 0
 316 425 315 424 315 422 c 2
 302 343 l 1
 350 285 l 1
 418 343 l 1
 462 608 l 2
 465 627 484 643 503 643 c 0
 520 643 533 630 533 614 c 0
 533 612 532 610 532 608 c 0
 486 328 l 2
 485 320 479 310 472 304 c 2
 363 211 l 2
 356 205 344 200 336 200 c 0
 328 200 318 205 313 211 c 2
 256 279 l 1
 177 211 l 2
 170 205 158 200 150 200 c 0
 142 200 132 205 127 211 c 2
 50 304 l 2
 45 310 43 320 44 328 c 2
 90 608 l 2
 93 627 111 643 130 643 c 0
EndSplineSet
EndChar

StartChar: x
Encoding: 120 120 87
Width: 576
VWidth: 214
Flags: W
HStem: 200 21G<56.5 69 433 446.5> 623 20G<129.5 143 507 519.5>
LayerCount: 2
Back
Fore
SplineSet
139 643 m 0
 147 643 156 638 161 632 c 2
 296 471 l 1
 485 632 l 2
 492 638 503 643 511 643 c 0
 528 643 542 630 542 613 c 0
 542 611 541 610 541 608 c 0
 540 600 532 589 525 583 c 2
 338 422 l 1
 471 260 l 2
 476 254 480 243 479 235 c 0
 476 216 456 200 437 200 c 0
 429 200 420 205 415 211 c 2
 280 372 l 1
 91 211 l 2
 84 205 73 200 65 200 c 0
 48 200 34 213 34 230 c 0
 34 232 35 233 35 235 c 0
 36 243 44 254 51 260 c 2
 238 422 l 1
 105 583 l 2
 100 589 96 600 97 608 c 0
 100 627 120 643 139 643 c 0
EndSplineSet
EndChar

StartChar: y
Encoding: 121 121 88
Width: 576
VWidth: 214
Flags: W
HStem: 107 21G<48.5 61> 623 20G<137.5 155.5 509.5 527.5>
LayerCount: 2
Back
Fore
SplineSet
147 643 m 0
 164 643 176 630 176 614 c 0
 176 612 176 610 176 608 c 0
 163 529 l 1
 288 378 l 1
 465 529 l 1
 478 608 l 2
 481 627 500 643 519 643 c 0
 536 643 548 630 548 614 c 0
 548 612 548 610 548 608 c 0
 532 515 l 2
 531 507 525 496 518 490 c 2
 306 308 l 2
 304 305 299 302 296 300 c 2
 84 118 l 2
 77 112 65 107 57 107 c 0
 40 107 28 120 28 136 c 0
 28 138 28 140 28 142 c 0
 29 150 36 161 43 167 c 2
 231 328 l 1
 97 490 l 2
 92 496 89 507 90 515 c 2
 106 608 l 2
 109 627 128 643 147 643 c 0
EndSplineSet
EndChar

StartChar: z
Encoding: 122 122 89
Width: 576
VWidth: 214
Flags: W
HStem: 200 70<160 472.844> 573 70<101.156 414>
LayerCount: 2
Back
Fore
SplineSet
138 643 m 0
 510 643 l 2
 527 643 541 630 541 613 c 0
 541 611 540 610 540 608 c 0
 539 600 531 589 524 583 c 2
 160 270 l 1
 448 270 l 2
 465 270 478 257 478 240 c 0
 478 238 478 237 478 235 c 0
 475 216 455 200 436 200 c 0
 64 200 l 2
 47 200 35 213 35 229 c 0
 35 231 36 233 36 235 c 0
 37 243 43 254 50 260 c 2
 414 573 l 1
 126 573 l 2
 109 573 96 586 96 603 c 0
 96 605 96 606 96 608 c 0
 99 627 119 643 138 643 c 0
EndSplineSet
EndChar

StartChar: braceleft
Encoding: 123 123 90
Width: 576
VWidth: 214
Flags: W
HStem: 200 70<253 357.156> 759 70<335 450.156>
LayerCount: 2
Back
Fore
SplineSet
333 829 m 1
 425 829 l 2
 427 829 l 0
 444 829 455 816 455 800 c 0
 455 798 455 796 455 794 c 0
 452 775 434 759 415 759 c 0
 413 759 l 2
 335 759 l 1
 267 701 l 1
 324 632 l 2
 329 626 331 616 330 608 c 0
 329 600 323 589 316 583 c 2
 236 515 l 1
 293 446 l 2
 298 440 300 430 299 422 c 0
 298 414 292 403 285 397 c 2
 205 328 l 1
 253 270 l 1
 331 270 l 2
 333 270 l 0
 350 270 362 257 362 241 c 0
 362 239 362 237 362 235 c 0
 359 216 341 200 322 200 c 0
 320 200 l 2
 228 200 l 2
 220 200 209 205 204 211 c 2
 127 304 l 2
 122 310 120 320 121 328 c 0
 122 336 128 347 135 353 c 2
 215 422 l 1
 158 490 l 2
 153 496 151 507 152 515 c 0
 153 523 159 533 166 539 c 2
 246 608 l 1
 189 676 l 2
 184 682 182 693 183 701 c 0
 184 709 190 719 197 725 c 2
 305 818 l 2
 312 824 325 829 333 829 c 1
EndSplineSet
EndChar

StartChar: bar
Encoding: 124 124 91
Width: 576
VWidth: 214
Flags: W
HStem: 107 21G<219.5 237.5> 809 20G<337.5 356.5>
VStem: 198 1<136.094 141.906>
LayerCount: 2
Back
Fore
SplineSet
347 829 m 0
 348 829 l 0
 365 829 378 816 378 800 c 0
 378 798 377 796 377 794 c 0
 269 142 l 2
 266 123 247 107 228 107 c 0
 211 107 198 120 198 136 c 0
 198 138 199 140 199 142 c 0
 307 794 l 2
 310 813 328 829 347 829 c 0
EndSplineSet
EndChar

StartChar: braceright
Encoding: 125 125 92
Width: 576
VWidth: 214
Flags: W
HStem: 200 70<125.844 241> 759 70<218.844 323>
LayerCount: 2
Back
Fore
SplineSet
254 829 m 0
 348 829 l 2
 356 829 365 824 370 818 c 2
 449 725 l 2
 454 719 456 709 455 701 c 0
 454 693 448 682 441 676 c 2
 361 608 l 1
 418 539 l 2
 423 533 425 523 424 515 c 0
 423 507 417 496 410 490 c 2
 330 422 l 1
 387 353 l 2
 392 347 394 336 393 328 c 0
 392 320 386 310 379 304 c 2
 269 211 l 2
 262 205 251 200 243 200 c 0
 149 200 l 2
 132 200 121 213 121 229 c 0
 121 231 121 233 121 235 c 0
 124 254 142 270 161 270 c 0
 241 270 l 1
 309 328 l 1
 252 397 l 2
 247 403 245 414 246 422 c 0
 247 430 253 440 260 446 c 2
 340 515 l 1
 283 583 l 2
 278 589 276 600 277 608 c 0
 278 616 284 626 291 632 c 2
 371 701 l 1
 323 759 l 1
 243 759 l 2
 226 759 214 772 214 788 c 0
 214 790 214 792 214 794 c 0
 217 813 235 829 254 829 c 0
EndSplineSet
EndChar

StartChar: asciitilde
Encoding: 126 126 93
Width: 576
VWidth: 214
Flags: W
HStem: 387 256
LayerCount: 2
Back
Fore
SplineSet
215 643 m 0
 223 643 235 638 240 632 c 2
 373 471 l 1
 454 539 l 2
 461 545 472 550 480 550 c 0
 497 550 511 537 511 520 c 0
 511 518 510 517 510 515 c 0
 509 507 501 496 494 490 c 2
 386 397 l 2
 379 391 367 387 359 387 c 0
 351 387 341 391 336 397 c 2
 201 558 l 1
 122 490 l 2
 115 484 104 479 96 479 c 0
 79 479 65 492 65 509 c 0
 65 511 66 512 66 514 c 0
 67 522 75 533 82 539 c 2
 190 632 l 2
 197 638 207 643 215 643 c 0
EndSplineSet
EndChar

StartChar: sterling
Encoding: 163 163 94
Width: 576
VWidth: 214
Flags: W
HStem: 200 70<122 186 308 504.156> 480 70<211.076 293 375 458> 666 70<467 582>
LayerCount: 2
Back
Fore
SplineSet
464 736 m 1
 557 736 l 2
 558 736 l 0
 575 736 588 723 588 707 c 0
 588 705 587 703 587 701 c 0
 584 682 565 666 546 666 c 0
 545 666 l 2
 467 666 l 1
 382 593 l 1
 375 550 l 1
 433 550 l 2
 434 550 l 0
 451 550 464 537 464 521 c 0
 464 519 463 517 463 515 c 0
 460 496 441 480 422 480 c 0
 421 480 l 2
 363 480 l 1
 338 328 l 2
 337 320 331 310 324 304 c 2
 298 282 l 1
 308 270 l 1
 479 270 l 2
 480 270 l 0
 497 270 510 257 510 241 c 0
 510 239 509 237 509 235 c 0
 506 216 488 200 469 200 c 0
 468 200 l 2
 282 200 l 2
 274 200 263 205 258 211 c 2
 241 232 l 1
 215 211 l 2
 208 205 197 200 189 200 c 2
 96 200 l 2
 88 200 77 205 72 211 c 2
 -5 304 l 2
 -10 310 -12 320 -11 328 c 0
 -10 336 -4 347 3 353 c 2
 112 446 l 2
 119 452 130 457 138 457 c 0
 146 457 157 452 162 446 c 2
 257 331 l 1
 270 343 l 1
 293 480 l 1
 235 480 l 2
 218 480 206 493 206 509 c 0
 206 511 206 513 206 515 c 0
 209 534 228 550 247 550 c 0
 305 550 l 1
 315 608 l 2
 316 616 322 626 329 632 c 2
 437 725 l 2
 444 731 456 736 464 736 c 1
124 372 m 1
 73 328 l 1
 122 270 l 1
 186 270 l 1
 199 282 l 1
 124 372 l 1
EndSplineSet
EndChar

StartChar: pi
Encoding: 960 960 95
Width: 576
VWidth: 214
Flags: W
HStem: 200 21G<133.5 151.5 319.5 337.5> 480 70<224 340> 623 20G<491 503.5>
LayerCount: 2
Back
Fore
SplineSet
495 643 m 0
 512 643 526 630 526 613 c 0
 526 611 526 610 526 608 c 0
 525 600 516 589 509 583 c 2
 414 500 l 1
 369 235 l 2
 366 216 347 200 328 200 c 0
 311 200 299 213 299 229 c 0
 299 231 299 233 299 235 c 0
 340 480 l 1
 224 480 l 1
 183 235 l 2
 180 216 161 200 142 200 c 0
 125 200 113 213 113 229 c 0
 113 231 113 233 113 235 c 0
 146 430 l 1
 106 397 l 2
 99 391 89 386 81 386 c 0
 64 386 50 399 50 416 c 0
 50 418 50 419 50 421 c 0
 51 429 60 440 67 446 c 2
 174 539 l 2
 176 541 181 544 183 545 c 0
 185 546 188 547 190 548 c 0
 193 549 197 550 200 550 c 2
 372 550 l 1
 470 632 l 2
 476 638 487 643 495 643 c 0
EndSplineSet
EndChar

StartChar: arrowleft
Encoding: 8592 8592 96
Width: 576
VWidth: 214
Flags: W
HStem: 480 70<146 550.924>
LayerCount: 2
Back
Fore
SplineSet
278 736 m 0
 279 736 l 0
 296 736 308 723 308 707 c 0
 308 705 308 703 308 701 c 0
 307 693 300 682 293 676 c 2
 146 550 l 1
 527 550 l 2
 544 550 556 537 556 521 c 0
 556 519 556 517 556 515 c 0
 553 496 534 480 515 480 c 0
 134 480 l 1
 239 353 l 2
 244 347 247 336 246 328 c 0
 243 309 224 293 205 293 c 0
 197 293 187 298 182 304 c 2
 29 487 l 2
 22 493 18 505 20 515 c 0
 22 525 29 536 38 542 c 2
 252 725 l 2
 258 731 270 736 278 736 c 0
EndSplineSet
EndChar

StartChar: arrowup
Encoding: 8593 8593 97
Width: 576
VWidth: 214
Flags: W
HStem: 200 21G<227.5 245.5>
LayerCount: 2
Back
Fore
SplineSet
325 736 m 0
 335 736 346 730 351 722 c 2
 502 539 l 2
 507 533 511 522 510 514 c 0
 507 495 487 479 468 479 c 0
 460 479 451 484 446 490 c 2
 339 616 l 1
 276 235 l 2
 273 216 255 200 236 200 c 0
 219 200 205 213 205 230 c 0
 205 232 206 233 206 235 c 0
 269 616 l 1
 122 490 l 2
 115 484 104 479 96 479 c 0
 79 479 66 492 66 509 c 0
 66 511 66 512 66 514 c 0
 67 522 75 533 82 539 c 2
 295 722 l 2
 302 730 316 736 325 736 c 0
EndSplineSet
EndChar

StartChar: SF100000
Encoding: 9472 9472 98
Width: 576
VWidth: 214
Flags: W
HStem: 480 70<-67.9241 643.924>
LayerCount: 2
Back
Fore
SplineSet
-32 550 m 0
 620 550 l 2
 637 550 649 537 649 521 c 0
 649 519 649 517 649 515 c 0
 646 496 627 480 608 480 c 0
 -44 480 l 2
 -61 480 -73 493 -73 509 c 0
 -73 511 -73 513 -73 515 c 0
 -70 534 -51 550 -32 550 c 0
EndSplineSet
EndChar

StartChar: SF110000
Encoding: 9474 9474 99
Width: 576
VWidth: 214
Flags: W
HStem: 107 21G<219.5 237.5> 809 20G<337.5 356.5>
VStem: 198 1<136.094 141.906>
LayerCount: 2
Back
Fore
SplineSet
347 829 m 0
 348 829 l 0
 365 829 378 816 378 800 c 0
 378 798 377 796 377 794 c 0
 269 142 l 2
 266 123 247 107 228 107 c 0
 211 107 198 120 198 136 c 0
 198 138 199 140 199 142 c 0
 307 794 l 2
 310 813 328 829 347 829 c 0
EndSplineSet
EndChar

StartChar: uni25B3
Encoding: 9651 9651 100
Width: 576
VWidth: 214
Flags: W
HStem: 200 70<100 488>
LayerCount: 2
Back
Fore
SplineSet
341 550 m 0
 349 550 358 545 363 539 c 2
 596 260 l 2
 601 254 603 243 602 235 c 0
 599 216 581 200 562 200 c 2
 8 200 l 2
 7 200 3 200 2 200 c 0
 -11 200 -23 209 -26 221 c 0
 -26 222 l 0
 -26 226 -27 231 -26 235 c 0
 -24 245 -16 257 -7 263 c 2
 315 539 l 2
 322 545 333 550 341 550 c 0
326 465 m 1
 100 270 l 1
 488 270 l 1
 326 465 l 1
EndSplineSet
EndChar

StartChar: uni25FB
Encoding: 9723 9723 101
Width: 576
VWidth: 214
Flags: W
HStem: 200 70<49 445> 759 70<131 527>
LayerCount: 2
Back
Fore
SplineSet
107 829 m 0
 573 829 l 2
 590 829 603 816 603 800 c 0
 603 798 603 796 603 794 c 2
 509 235 l 2
 506 216 488 200 469 200 c 2
 9 200 l 2
 7 200 5 200 3 200 c 0
 -5 200 -15 205 -20 210 c 0
 -21 211 l 0
 -26 217 -28 227 -27 235 c 0
 -27 237 -26 239 -26 241 c 2
 67 794 l 2
 70 813 88 829 107 829 c 0
131 759 m 1
 49 270 l 1
 445 270 l 1
 527 759 l 1
 131 759 l 1
EndSplineSet
EndChar

